<svg xmlns="http://www.w3.org/2000/svg" xmlns:xlink="http://www.w3.org/1999/xlink" viewBox="0 0 500 500"><defs><clipPath id="freepik--clip-path--inject-2"><path d="M91.87,316.05l34.93,8.75V326l2.94.08v-1.38l25.83-4.08s1.13-.26.17,1-17.59,15.78-17.59,15.78l-18.46,1.9-28-6.15Z" style="fill:#FFCA00;stroke:#263238;stroke-linecap:round;stroke-linejoin:round"></path></clipPath><clipPath id="freepik--clip-path-2--inject-2"><path d="M109,416.69l15.56-10.16-.21-.81,1.43-.42.23.93,13.28-.4s.59,0-.09-.72S128,396.62,128,396.62l-9.33,1-12.62,7.55Z" style="fill:#FFCA00;stroke:#263238;stroke-linecap:round;stroke-linejoin:round"></path></clipPath><clipPath id="freepik--clip-path-3--inject-2"><polygon points="358.82 305.55 382.02 335.55 323.5 352.54 330.3 316.48 358.82 305.55" style="fill:#fff;stroke:#263238;stroke-linecap:round;stroke-linejoin:round"></polygon></clipPath><clipPath id="freepik--clip-path-4--inject-2"><polygon points="358.22 299.71 341.24 335.11 302.07 348.41 322.17 316.63 358.22 299.71" style="fill:#FFCA00;stroke:#263238;stroke-linecap:round;stroke-linejoin:round"></polygon></clipPath><clipPath id="freepik--clip-path-5--inject-2"><polygon points="227.77 396.45 251.71 360.64 193.82 357.42 199.63 392.2 227.77 396.45" style="fill:#fff;stroke:#263238;stroke-linecap:round;stroke-linejoin:round"></polygon></clipPath><clipPath id="freepik--clip-path-6--inject-2"><polygon points="227.02 402.48 211.03 370.8 172.34 366.7 191.53 393.99 227.02 402.48" style="fill:#FFCA00;stroke:#263238;stroke-linecap:round;stroke-linejoin:round"></polygon></clipPath><clipPath id="freepik--clip-path-7--inject-2"><path d="M145.33,190.83l145.94,36.58v5.16l12.53.37V227l109.83-17.32s4.79-1.11.74,4.42-74.82,67.08-74.82,67.08l-78.5,8.11L142,263.16l.71-70.31A2.1,2.1,0,0,1,145.33,190.83Z" style="fill:#FFCA00;stroke:#263238;stroke-linecap:round;stroke-linejoin:round"></path></clipPath></defs><g id="freepik--Books--inject-2"><path d="M128.27,323.33s-4.94-4.33-10.05-5.81-11-1.51-16.09-2.9S94,312.06,94,312.06l-.26,4.6,34.32,9.27,23.48-6.5,2.34-4.77a38,38,0,0,1-8,2.69c-5.11,1.21-10.83,1.21-14,2.43S128.27,323.33,128.27,323.33Z" style="fill:#fff;stroke:#263238;stroke-linecap:round;stroke-linejoin:round"></path><path d="M93.26,313.1a119.21,119.21,0,0,0,20.55,4.35,31.38,31.38,0,0,1,14.46,5.88,23.26,23.26,0,0,1,11.53-3.64,59,59,0,0,0,14.47-2.95l-1.47,3-25.22,4.94-34.84-9.1Z" style="fill:#fff;stroke:#263238;stroke-linecap:round;stroke-linejoin:round"></path><path d="M92.31,314.14a62.43,62.43,0,0,0,16.6,3.87c9.28.7,19.1,5.32,19.1,5.32a29.27,29.27,0,0,1,12.22-3.12,56.87,56.87,0,0,0,14.13-1.91,3.39,3.39,0,0,0,.43,2.86l-26.87,5.72-35.79-10.4Z" style="fill:#fff;stroke:#263238;stroke-linecap:round;stroke-linejoin:round"></path><path d="M91.87,316.05l34.93,8.75V326l2.94.08v-1.38l25.83-4.08s1.13-.26.17,1-17.59,15.78-17.59,15.78l-18.46,1.9-28-6.15Z" style="fill:#FFCA00"></path><g style="clip-path:url(#freepik--clip-path--inject-2)"><polygon points="126.8 326.02 126.8 324.8 91.87 316.05 91.7 333.21 119.69 339.36 120.19 339.31 127.58 326.04 126.8 326.02" style="opacity:0.30000000000000004"></polygon></g><path d="M91.87,316.05l34.93,8.75V326l2.94.08v-1.38l25.83-4.08s1.13-.26.17,1-17.59,15.78-17.59,15.78l-18.46,1.9-28-6.15Z" style="fill:none;stroke:#263238;stroke-linecap:round;stroke-linejoin:round"></path><polygon points="126.8 326.02 119.08 339.36 120.56 339.45 129.74 326.1 126.8 326.02" style="fill:#FFCA00;stroke:#263238;stroke-linecap:round;stroke-linejoin:round"></polygon><path d="M125.56,407.35s-1.68,3.52-3.92,5.13-5.1,2.37-7.36,3.92a36.29,36.29,0,0,0-3.52,2.71l-.9-3.06L125,405.62l12.55,1.52,1.94,2.92a16.38,16.38,0,0,0-4.34-.84c-2.69-.19-5.48.51-7.25.08A3.56,3.56,0,0,1,125.56,407.35Z" style="fill:#fff;stroke:#263238;stroke-linecap:round;stroke-linejoin:round"></path><path d="M110.21,418.5a46.53,46.53,0,0,1,9.29-5.43,14.15,14.15,0,0,0,6.06-5.72,10,10,0,0,0,6.24,1,22.87,22.87,0,0,1,7.55.22l-1.23-1.87L125,406.5l-15.46,10.37Z" style="fill:#fff;stroke:#263238;stroke-linecap:round;stroke-linejoin:round"></path><path d="M109.57,417.92a24.8,24.8,0,0,1,7.45-4.63c4.4-1.6,8.42-5.91,8.42-5.91a11.83,11.83,0,0,0,6.48.61,21.29,21.29,0,0,1,7.21-.43,3.21,3.21,0,0,1-.27-2L124.8,405l-15.71,11.37Z" style="fill:#fff;stroke:#263238;stroke-linecap:round;stroke-linejoin:round"></path><path d="M109,416.69l15.56-10.16-.21-.81,1.43-.42.23.93,13.28-.4s.59,0-.09-.72S128,396.62,128,396.62l-9.33,1-12.62,7.55Z" style="fill:#FFCA00"></path><g style="clip-path:url(#freepik--clip-path-2--inject-2)"><polygon points="124.39 405.72 124.6 406.53 109.04 416.69 106.06 405.14 118.68 397.59 118.93 397.56 124.77 405.61 124.39 405.72" style="opacity:0.30000000000000004"></polygon></g><path d="M109,416.69l15.56-10.16-.21-.81,1.43-.42.23.93,13.28-.4s.59,0-.09-.72S128,396.62,128,396.62l-9.33,1-12.62,7.55Z" style="fill:none;stroke:#263238;stroke-linecap:round;stroke-linejoin:round"></path><polygon points="124.39 405.72 118.39 397.66 119.09 397.42 125.82 405.3 124.39 405.72" style="fill:#FFCA00;stroke:#263238;stroke-linecap:round;stroke-linejoin:round"></polygon><polygon points="358.22 299.71 386.46 328.31 326.16 345.3 322.17 316.63 358.22 299.71" style="fill:#FFCA00;stroke:#263238;stroke-linecap:round;stroke-linejoin:round"></polygon><polygon points="383.21 332.44 320.84 350.77 325.87 317.81 357.34 303.77 383.21 332.44" style="fill:#fff;stroke:#263238;stroke-linecap:round;stroke-linejoin:round"></polygon><polygon points="358.82 305.55 382.02 335.55 323.5 352.54 330.3 316.48 358.82 305.55" style="fill:#fff"></polygon><g style="clip-path:url(#freepik--clip-path-3--inject-2)"><polygon points="358.82 305.55 382.02 335.55 323.5 352.54 330.3 316.48 358.82 305.55" style="opacity:0.17"></polygon></g><polygon points="358.82 305.55 382.02 335.55 323.5 352.54 330.3 316.48 358.82 305.55" style="fill:none;stroke:#263238;stroke-linecap:round;stroke-linejoin:round"></polygon><polygon points="358.82 305.55 348.18 342.49 306.65 355.06 322.61 321.06 358.82 305.55" style="fill:#fff;stroke:#263238;stroke-linecap:round;stroke-linejoin:round"></polygon><polygon points="345.23 339.54 305.18 352.99 303.99 347.37 341.09 334.07 345.23 339.54" style="fill:#fff;stroke:#263238;stroke-linecap:round;stroke-linejoin:round"></polygon><polygon points="357.79 300.52 384.39 328.16 383.21 332.44 358.82 305.55 345.23 339.54 341.09 334.07 357.79 300.52" style="fill:#fff;stroke:#263238;stroke-linecap:round;stroke-linejoin:round"></polygon><polygon points="358.22 299.71 341.24 335.11 302.07 348.41 322.17 316.63 358.22 299.71" style="fill:#FFCA00"></polygon><g style="clip-path:url(#freepik--clip-path-4--inject-2)"><polygon points="358.22 299.71 341.24 335.11 302.07 348.41 322.17 316.63 358.22 299.71" style="opacity:0.30000000000000004"></polygon></g><polygon points="358.22 299.71 341.24 335.11 302.07 348.41 322.17 316.63 358.22 299.71" style="fill:none;stroke:#263238;stroke-linecap:round;stroke-linejoin:round"></polygon><line x1="320.55" y1="319.89" x2="352.06" y2="305.51" style="fill:none;stroke:#263238;stroke-linecap:round;stroke-linejoin:round"></line><polygon points="227.02 402.48 255.94 366.9 196.28 364.1 191.53 393.99 227.02 402.48" style="fill:#FFCA00;stroke:#263238;stroke-linecap:round;stroke-linejoin:round"></polygon><polygon points="252.81 363.5 191.12 359.85 195.24 391.92 226.25 398.6 252.81 363.5" style="fill:#fff;stroke:#263238;stroke-linecap:round;stroke-linejoin:round"></polygon><polygon points="227.77 396.45 251.71 360.64 193.82 357.42 199.63 392.2 227.77 396.45" style="fill:#fff"></polygon><g style="clip-path:url(#freepik--clip-path-5--inject-2)"><polygon points="227.77 396.45 251.71 360.64 193.82 357.42 199.63 392.2 227.77 396.45" style="opacity:0.17"></polygon></g><polygon points="227.77 396.45 251.71 360.64 193.82 357.42 199.63 392.2 227.77 396.45" style="fill:none;stroke:#263238;stroke-linecap:round;stroke-linejoin:round"></polygon><polygon points="227.77 396.45 218.16 361.69 177.09 358.9 192.09 389.41 227.77 396.45" style="fill:#fff;stroke:#263238;stroke-linecap:round;stroke-linejoin:round"></polygon><polygon points="215.13 365.38 175.56 361.34 174.23 367.29 210.86 371.88 215.13 365.38" style="fill:#fff;stroke:#263238;stroke-linecap:round;stroke-linejoin:round"></polygon><polygon points="226.6 401.77 253.87 367.54 252.81 363.5 227.77 396.45 215.13 365.38 210.86 371.88 226.6 401.77" style="fill:#fff;stroke:#263238;stroke-linecap:round;stroke-linejoin:round"></polygon><polygon points="227.02 402.48 211.03 370.8 172.34 366.7 191.53 393.99 227.02 402.48" style="fill:#FFCA00"></polygon><g style="clip-path:url(#freepik--clip-path-6--inject-2)"><polygon points="227.02 402.48 211.03 370.8 172.34 366.7 191.53 393.99 227.02 402.48" style="opacity:0.30000000000000004"></polygon></g><polygon points="227.02 402.48 211.03 370.8 172.34 366.7 191.53 393.99 227.02 402.48" style="fill:none;stroke:#263238;stroke-linecap:round;stroke-linejoin:round"></polygon><line x1="188.58" y1="390.05" x2="220.09" y2="396.68" style="fill:none;stroke:#263238;stroke-linecap:round;stroke-linejoin:round"></line></g></svg>