<svg xmlns="http://www.w3.org/2000/svg" viewBox="0 0 500 500"><g id="freepik--Floor--inject-14"><ellipse id="freepik--floor--inject-14" cx="254.89" cy="344.42" rx="230.7" ry="133.19" style="fill:#f5f5f5"></ellipse></g><g id="freepik--Shadows--inject-14"><path id="freepik--Shadow--inject-14" d="M260.84,453.58l78.75-45.71-59.2-34.18L275,365.28s-29-6.22-38.46-1.49-59.28,22.63-59.28,22.63-83.93-66.58-89.9-70-41.09,18.33-25.56,33.23,47,33.37,61.43,39.66,39.18,12.27,39.18,12.27-3.92,5.52,7.59,14,61.61,31.49,68.46,33.78c7.74,2.58,17.06,1.19,17.06,1.19Z" style="fill:#e0e0e0"></path><path id="freepik--shadow--inject-14" d="M471.38,331.11l-53.76,31a3,3,0,0,1-2.68,0L302,296.8c-.74-.43-.74-1.12,0-1.54l53.77-31a2.92,2.92,0,0,1,2.67,0l113,65.3C472.12,330,472.12,330.69,471.38,331.11Z" style="fill:#e0e0e0"></path></g><g id="freepik--Books--inject-14"><g id="freepik--books--inject-14"><polygon points="361.06 191.34 314.31 218.14 314.31 297.42 361.06 270.62 361.06 191.34" style="fill:#FFC100"></polygon><polygon points="361.06 191.34 314.31 218.14 314.31 297.42 361.06 270.62 361.06 191.34" style="opacity:0.35000000000000003"></polygon><path d="M315.64,219.46l45.42-25.88q3.09,3.6,9.16,5L325.15,224.4S322.58,223.8,315.64,219.46Z" style="fill:#f5f5f5"></path><path d="M329,224.26a8.5,8.5,0,0,1-7.7,0l-6.75-3.9c-2.13-1.22-2.13-3.21,0-4.44l44.83-25.55,1.68,1-44.19,25.31c-1.28.73-1.27,1.93,0,2.66l6.28,3.58a5.08,5.08,0,0,0,4.62,0l44.17-25.27,1.9,1.1Z" style="fill:#FFC100"></path><path d="M329,224.26a8.5,8.5,0,0,1-7.7,0l-6.75-3.9c-2.13-1.22-2.13-3.21,0-4.44l44.83-25.55,1.68,1-44.19,25.31c-1.28.73-1.27,1.93,0,2.66l6.28,3.58a5.08,5.08,0,0,0,4.62,0l44.17-25.27,1.9,1.1Z" style="opacity:0.25"></path><path d="M373.83,198.72V278L329,303.54a8.56,8.56,0,0,1-7.7,0l-6.76-3.9a2.71,2.71,0,0,1-1.59-2.22V218.14a2.71,2.71,0,0,0,1.59,2.22l6.76,3.91a8.56,8.56,0,0,0,7.7,0Z" style="fill:#FFC100"></path><path d="M373.83,198.72V278L329,303.54a8.56,8.56,0,0,1-7.7,0l-6.76-3.9a2.71,2.71,0,0,1-1.59-2.22V218.14a2.71,2.71,0,0,0,1.59,2.22l6.76,3.91a8.56,8.56,0,0,0,7.7,0Z" style="opacity:0.05"></path><path d="M325.15,225.19a7.89,7.89,0,0,1-3.85-.92l-6.76-3.91a2.71,2.71,0,0,1-1.59-2.22v79.28a2.71,2.71,0,0,0,1.59,2.22l6.76,3.9a7.89,7.89,0,0,0,3.85.92Z" style="fill:#FFC100"></path><path d="M325.15,225.19a7.89,7.89,0,0,1-3.85-.92l-6.76-3.91a2.71,2.71,0,0,1-1.59-2.22v79.28a2.71,2.71,0,0,0,1.59,2.22l6.76,3.9a7.89,7.89,0,0,0,3.85.92Z" style="opacity:0.2"></path><polygon points="372.44 209.34 333.28 232.1 333.28 307.05 372.44 284.3 372.44 209.34" style="fill:#FFC100"></polygon><polygon points="372.44 209.34 333.28 232.1 333.28 307.05 372.44 284.3 372.44 209.34" style="fill:#fff;opacity:0.55"></polygon><path d="M334.54,233.34l37.9-21.88a15.94,15.94,0,0,0,8.67,4.77L343.53,238S341.1,237.45,334.54,233.34Z" style="fill:#f5f5f5"></path><path d="M347.17,237.89a8,8,0,0,1-7.28,0l-6.38-3.69c-2-1.16-2-3,0-4.2l37.35-21.57,1.58.91L335.7,230.69a1.33,1.33,0,0,0,0,2.52l5.93,3.38a4.81,4.81,0,0,0,4.37,0l36.72-21.3,1.8,1Z" style="fill:#FFC100"></path><path d="M347.17,237.89a8,8,0,0,1-7.28,0l-6.38-3.69c-2-1.16-2-3,0-4.2l37.35-21.57,1.58.91L335.7,230.69a1.33,1.33,0,0,0,0,2.52l5.93,3.38a4.81,4.81,0,0,0,4.37,0l36.72-21.3,1.8,1Z" style="fill:#fff;opacity:0.8"></path><path d="M384.52,216.32v74.95l-37.35,21.57a8,8,0,0,1-7.28,0l-6.39-3.69a2.54,2.54,0,0,1-1.5-2.1v-75a2.56,2.56,0,0,0,1.5,2.1l6.39,3.69a8,8,0,0,0,7.28,0Z" style="fill:#FFC100"></path><path d="M384.52,216.32v74.95l-37.35,21.57a8,8,0,0,1-7.28,0l-6.39-3.69a2.54,2.54,0,0,1-1.5-2.1v-75a2.56,2.56,0,0,0,1.5,2.1l6.39,3.69a8,8,0,0,0,7.28,0Z" style="fill:#fff;opacity:0.7000000000000001"></path><path d="M343.53,238.76a7.42,7.42,0,0,1-3.64-.87l-6.39-3.69a2.56,2.56,0,0,1-1.5-2.1v75a2.54,2.54,0,0,0,1.5,2.1l6.39,3.69a7.42,7.42,0,0,0,3.64.87Z" style="fill:#FFC100"></path><path d="M343.53,238.76a7.42,7.42,0,0,1-3.64-.87l-6.39-3.69a2.56,2.56,0,0,1-1.5-2.1v75a2.54,2.54,0,0,0,1.5,2.1l6.39,3.69a7.42,7.42,0,0,0,3.64.87Z" style="fill:#fff;opacity:0.55"></path><polygon points="421.54 222.6 421.96 228.3 371.56 255.34 370.42 252.02 421.54 222.6" style="fill:#FFC100"></polygon><polygon points="421.54 222.6 421.96 228.3 371.56 255.34 370.42 252.02 421.54 222.6" style="opacity:0.35000000000000003"></polygon><polygon points="371.09 253.34 419.91 225.16 428.4 230.06 378.62 259.18 371.09 253.34" style="fill:#f5f5f5"></polygon><path d="M387.79,256.16l6.07,48.76a4,4,0,0,1-1.81,3.13l-28.32,16.39a3.5,3.5,0,0,1-1.47.42L378.62,261a3.45,3.45,0,0,0,1.47-.41l2-1.18Z" style="fill:#FFC100"></path><path d="M387.79,256.16l6.07,48.76a4,4,0,0,1-1.81,3.13l-28.32,16.39a3.5,3.5,0,0,1-1.47.42L378.62,261a3.45,3.45,0,0,0,1.47-.41l2-1.18Z" style="opacity:0.35000000000000003"></path><path d="M376.47,260.61l-5.05-4.32-3.71-3.18c-.38-.6-.82-1.05-.58-1.55L351,314.88l0,.06c-.24.5-.31,1.62.38,2l8.75,7.49a3.73,3.73,0,0,0,2.16.42L378.62,261A3.75,3.75,0,0,1,376.47,260.61Z" style="fill:#FFC100"></path><path d="M376.47,260.61l-5.05-4.32-3.71-3.18c-.38-.6-.82-1.05-.58-1.55L351,314.88l0,.06c-.24.5-.31,1.62.38,2l8.75,7.49a3.73,3.73,0,0,0,2.16.42L378.62,261A3.75,3.75,0,0,1,376.47,260.61Z" style="opacity:0.25"></path><path d="M367.71,251c-1,.58-.75,1.22,0,2.09l8.76,7.5a4,4,0,0,0,3.62,0l7.7-4.45c1-.57,1.18-1.41.39-1.86a3.61,3.61,0,0,0-3.22.23L378.88,258a1.36,1.36,0,0,1-1.21,0l-6.4-5.56c-.33-.19-.33-.5,0-.7l50.27-29.18-2.41-1.39Z" style="fill:#FFC100"></path><path d="M367.71,251c-1,.58-.75,1.22,0,2.09l8.76,7.5a4,4,0,0,0,3.62,0l7.7-4.45c1-.57,1.18-1.41.39-1.86a3.61,3.61,0,0,0-3.22.23L378.88,258a1.36,1.36,0,0,1-1.21,0l-6.4-5.56c-.33-.19-.33-.5,0-.7l50.27-29.18-2.41-1.39Z" style="opacity:0.15"></path><polygon points="431.28 223.46 385.5 250.06 385.5 337.66 431.28 311.07 431.28 223.46" style="fill:#455a64"></polygon><path d="M387,251.51l44.3-25.57q3.42,4,10.13,5.57L397.48,257S394.65,256.31,387,251.51Z" style="fill:#f5f5f5"></path><path d="M401.74,256.82a9.39,9.39,0,0,1-8.51,0l-7.46-4.3c-2.35-1.36-2.35-3.56,0-4.92l43.66-25.21,1.85,1.07-42.94,24.95c-1.41.81-1.41,2.13,0,2.94l6.93,4a5.68,5.68,0,0,0,5.11,0l42.93-24.9,2.09,1.21Z" style="fill:#263238"></path><path d="M445.4,231.61v87.61l-43.66,25.2a9.39,9.39,0,0,1-8.51,0l-7.46-4.3a3,3,0,0,1-1.76-2.46v-87.6a3,3,0,0,0,1.76,2.45l7.46,4.32a9.45,9.45,0,0,0,8.51,0Z" style="fill:#455a64"></path><path d="M397.48,257.85a8.65,8.65,0,0,1-4.25-1l-7.46-4.32a3,3,0,0,1-1.76-2.45v87.6a3,3,0,0,0,1.76,2.46l7.46,4.3a8.65,8.65,0,0,0,4.25,1Z" style="fill:#37474f"></path><polygon points="450 234.27 404.22 260.87 404.22 348.48 450 321.88 450 234.27" style="fill:#FFC100"></polygon><polygon points="450 234.27 404.22 260.87 404.22 348.48 450 321.88 450 234.27" style="opacity:0.35000000000000003"></polygon><path d="M405.7,262.32,450,236.75q3.42,4,10.13,5.57L416.2,267.79S413.36,267.12,405.7,262.32Z" style="fill:#ebebeb"></path><path d="M405.7,262.32,450,236.75q3.42,4,10.13,5.57L416.2,267.79S413.36,267.12,405.7,262.32Z" style="fill:#f5f5f5"></path><path d="M420.46,267.63a9.39,9.39,0,0,1-8.51,0l-7.46-4.3c-2.35-1.36-2.35-3.56,0-4.92l43.66-25.2,1.85,1.06-42.94,25c-1.41.81-1.41,2.13,0,2.94l6.93,4a5.68,5.68,0,0,0,5.11,0L462,241.22l2.1,1.21Z" style="fill:#FFC100"></path><path d="M420.46,267.63a9.39,9.39,0,0,1-8.51,0l-7.46-4.3c-2.35-1.36-2.35-3.56,0-4.92l43.66-25.2,1.85,1.06-42.94,25c-1.41.81-1.41,2.13,0,2.94l6.93,4a5.68,5.68,0,0,0,5.11,0L462,241.22l2.1,1.21Z" style="opacity:0.25"></path><path d="M464.11,242.42V330l-43.65,25.21a9.45,9.45,0,0,1-8.51,0l-7.46-4.31a3,3,0,0,1-1.76-2.46v-87.6a3,3,0,0,0,1.76,2.45l7.46,4.32a9.39,9.39,0,0,0,8.51,0Z" style="fill:#FFC100"></path><path d="M416.2,268.66a8.65,8.65,0,0,1-4.25-1l-7.46-4.32a3,3,0,0,1-1.76-2.45v87.6a3,3,0,0,0,1.76,2.46l7.46,4.31a8.75,8.75,0,0,0,4.25,1Z" style="opacity:0.15"></path></g></g></svg>