<svg xmlns="http://www.w3.org/2000/svg" viewBox="0 0 500 500"><g id="freepik--Floor--inject-9"><path d="M454.47,477.46c0,.14-93.17.26-208.07.26s-208.1-.12-208.1-.26,93.15-.26,208.1-.26S454.47,477.31,454.47,477.46Z" style="fill:#263238"></path></g><g id="freepik--big-books--inject-9"><rect x="332.3" y="294.59" width="43.84" height="52.12" style="fill:#f5f5f5"></rect><rect x="135.68" y="291.2" width="198.13" height="58.8" style="fill:#FFC100"></rect><path d="M377.47,296.14h-49V291.2h49a2.46,2.46,0,0,1,2.47,2.47h0A2.47,2.47,0,0,1,377.47,296.14Z" style="fill:#FFC100"></path><path d="M377.47,350h-49v-4.94h49a2.47,2.47,0,0,1,2.47,2.47h0A2.46,2.46,0,0,1,377.47,350Z" style="fill:#FFC100"></path><g style="opacity:0.4"><rect x="294.83" y="291.2" width="23.41" height="58.8"></rect></g><g style="opacity:0.4"><rect x="153.26" y="291.2" width="23.41" height="58.8"></rect></g><path d="M376.14,303.22c0,.14-9.49.26-21.19.26s-21.19-.12-21.19-.26S343.25,303,355,303,376.14,303.07,376.14,303.22Z" style="fill:#e0e0e0"></path><path d="M376.14,311c0,.15-9.49.26-21.19.26s-21.19-.11-21.19-.26,9.49-.26,21.19-.26S376.14,310.89,376.14,311Z" style="fill:#e0e0e0"></path><path d="M376.14,320.65c0,.15-9.49.27-21.19.27s-21.19-.12-21.19-.27,9.49-.26,21.19-.26S376.14,320.51,376.14,320.65Z" style="fill:#e0e0e0"></path><path d="M376.14,330.28c0,.14-9.49.26-21.19.26s-21.19-.12-21.19-.26S343.25,330,355,330,376.14,330.13,376.14,330.28Z" style="fill:#e0e0e0"></path><path d="M376.14,339.9c0,.15-9.49.26-21.19.26s-21.19-.11-21.19-.26,9.49-.26,21.19-.26S376.14,339.76,376.14,339.9Z" style="fill:#e0e0e0"></path><g style="opacity:0.2"><rect x="193.1" y="315.36" width="89.14" height="10.59"></rect></g><rect x="331.18" y="351.15" width="44.51" height="31.76" style="fill:#fafafa"></rect><rect x="142.24" y="349.99" width="189.44" height="34.06" style="fill:#455a64"></rect><path d="M330.3,352.3h47.85a1.15,1.15,0,0,0,1.15-1.15h0a1.15,1.15,0,0,0-1.15-1.16H330.3Z" style="fill:#455a64"></path><path d="M330.3,381.75h47.85a1.15,1.15,0,0,1,1.15,1.15v0a1.15,1.15,0,0,1-1.15,1.15H330.3a0,0,0,0,1,0,0v-2.3A0,0,0,0,1,330.3,381.75Z" style="fill:#455a64"></path><path d="M375.7,357.18c0,.14-9.86.26-22,.26s-22-.12-22-.26,9.85-.26,22-.26S375.7,357,375.7,357.18Z" style="fill:#e0e0e0"></path><path d="M375.7,363.19c0,.14-9.86.26-22,.26s-22-.12-22-.26,9.85-.26,22-.26S375.7,363,375.7,363.19Z" style="fill:#e0e0e0"></path><path d="M375.7,369.19c0,.15-9.86.26-22,.26s-22-.11-22-.26,9.85-.26,22-.26S375.7,369.05,375.7,369.19Z" style="fill:#e0e0e0"></path><path d="M375.7,375.2c0,.15-9.86.26-22,.26s-22-.11-22-.26,9.85-.26,22-.26S375.7,375.06,375.7,375.2Z" style="fill:#e0e0e0"></path><rect x="171.77" y="362.19" width="130.64" height="8.89" style="fill:#263238"></rect><rect x="337.01" y="387.08" width="45.44" height="86.09" style="fill:#ebebeb"></rect><rect x="123.74" y="384.06" width="213.27" height="93.34" style="fill:#FFC100"></rect><path d="M386,477.4H331.18v-6H386a3,3,0,0,1,3,3h0A3,3,0,0,1,386,477.4Z" style="fill:#FFC100"></path><path d="M331.18,384.06H386a3,3,0,0,1,3,3v0a3,3,0,0,1-3,3H331.18a0,0,0,0,1,0,0v-6.05A0,0,0,0,1,331.18,384.06Z" style="fill:#FFC100"></path><g style="opacity:0.4"><polygon points="291.14 384.06 246.28 477.4 284.18 477.4 326.71 384.06 291.14 384.06" style="fill:#fff"></polygon></g><g style="opacity:0.4"><polygon points="220.38 384.06 175.52 477.4 213.41 477.4 255.95 384.06 220.38 384.06" style="fill:#fff"></polygon></g><path d="M382.45,398.62c0,.15-10.17.26-22.72.26s-22.72-.11-22.72-.26,10.17-.26,22.72-.26S382.45,398.48,382.45,398.62Z" style="fill:#e0e0e0"></path><path d="M382.45,409.66c0,.15-10.17.26-22.72.26s-22.72-.11-22.72-.26,10.17-.26,22.72-.26S382.45,409.52,382.45,409.66Z" style="fill:#e0e0e0"></path><path d="M382.45,420.71c0,.14-10.17.26-22.72.26s-22.72-.12-22.72-.26,10.17-.26,22.72-.26S382.45,420.56,382.45,420.71Z" style="fill:#e0e0e0"></path><path d="M382.45,431.75c0,.14-10.17.26-22.72.26s-22.72-.12-22.72-.26,10.17-.26,22.72-.26S382.45,431.6,382.45,431.75Z" style="fill:#e0e0e0"></path><path d="M382.45,442.79c0,.14-10.17.26-22.72.26s-22.72-.12-22.72-.26,10.17-.26,22.72-.26S382.45,442.65,382.45,442.79Z" style="fill:#e0e0e0"></path><path d="M382.45,453.83c0,.14-10.17.26-22.72.26S337,454,337,453.83s10.17-.26,22.72-.26S382.45,453.69,382.45,453.83Z" style="fill:#e0e0e0"></path><path d="M382.45,464.87c0,.15-10.17.26-22.72.26S337,465,337,464.87s10.17-.26,22.72-.26S382.45,464.73,382.45,464.87Z" style="fill:#e0e0e0"></path></g><g id="freepik--Plants--inject-9"><path d="M81.38,361.93c-7.95-12.16-6.79-29.54,2.7-40.54,3-3.41,7.07-6.38,11.57-6s8.31,4.34,9.71,8.74.91,9.17.09,13.71c-1.15,6.36-3.08,12.87-7.5,17.6s-10.9,9.58-16.57,6.48" style="fill:#FFC100"></path><path d="M85.78,420.48a18.16,18.16,0,0,1,5.06-20.64c1.83-1.5,4.22-2.65,6.5-2s3.89,3,4.21,5.39a14.94,14.94,0,0,1-1.19,7.07c-1.17,3.17-2.75,6.35-5.46,8.39s-6.48,3.95-9.12,1.84" style="fill:#FFC100"></path><path d="M66.6,416.3a26.31,26.31,0,0,0-13.26-27.76c-3-1.57-6.76-2.51-9.81-1s-4.63,5.38-4.38,8.87,1.92,6.71,3.77,9.67c2.6,4.16,5.78,8.2,10.21,10.29s10.35,3.68,13.47-.09" style="fill:#FFC100"></path><path d="M68,387.14c3.8-12.28-2.65-27.18-13.41-34.23-3.34-2.19-7.57-3.71-11.3-2.29s-6,5.72-6.13,9.8,1.45,8,3.26,11.7c2.52,5.13,5.75,10.2,10.66,13.15S63.9,391.16,68,387.14" style="fill:#FFC100"></path><path d="M75.62,447.2a3.5,3.5,0,0,1-.12-.6c-.07-.45-.15-1-.26-1.71,0-.38-.11-.79-.17-1.24s-.18-.94-.28-1.46c-.2-1.05-.41-2.25-.75-3.55-.16-.65-.32-1.33-.49-2.05s-.43-1.43-.65-2.19c-.41-1.52-1-3.1-1.58-4.78a92.72,92.72,0,0,0-4.74-10.52,94.23,94.23,0,0,0-6.15-9.77c-1.08-1.4-2.06-2.77-3.11-4-.51-.6-1-1.18-1.47-1.75l-1.43-1.54c-.9-1-1.78-1.84-2.54-2.59-.38-.37-.74-.71-1.06-1s-.66-.57-.94-.83l-1.29-1.16a2.69,2.69,0,0,1-.43-.43,2.53,2.53,0,0,1,.5.35L50,397.47l1,.8,1.1,1c.78.73,1.69,1.55,2.6,2.55l1.47,1.53,1.5,1.73c1.07,1.18,2.07,2.56,3.17,4A88.86,88.86,0,0,1,67,418.86a88.31,88.31,0,0,1,4.73,10.59c.56,1.7,1.15,3.29,1.55,4.83.21.76.42,1.5.61,2.21s.32,1.41.47,2.07c.32,1.31.5,2.52.68,3.58.08.52.16,1,.24,1.47s.09.87.13,1.25c.06.71.11,1.28.15,1.73A2.58,2.58,0,0,1,75.62,447.2Z" style="fill:#263238"></path><path d="M75.34,449.4a.73.73,0,0,1,0-.24c0-.19,0-.43.06-.71.06-.67.14-1.58.25-2.73.06-.6.12-1.26.19-2s.08-1.51.12-2.35c.06-1.69.22-3.61.17-5.74,0-1.06,0-2.18,0-3.34s-.12-2.36-.18-3.61c-.08-2.5-.42-5.15-.73-7.94a124.68,124.68,0,0,0-3.76-17.87,124.51,124.51,0,0,0-6.59-17c-1.27-2.51-2.43-4.92-3.72-7.06-.63-1.08-1.19-2.15-1.82-3.13l-1.8-2.8c-1.11-1.82-2.29-3.34-3.27-4.72-.49-.68-.94-1.33-1.38-1.91l-1.23-1.54-1.7-2.15L49.5,362c-.1-.13-.15-.2-.14-.21l.18.17c.12.15.28.32.47.54l1.77,2.09,1.28,1.52c.45.57.91,1.21,1.42,1.89,1,1.37,2.2,2.88,3.34,4.69.58.89,1.2,1.82,1.84,2.79s1.2,2,1.85,3.13c1.31,2.14,2.49,4.55,3.78,7.06a120.29,120.29,0,0,1,6.64,17.1,120.29,120.29,0,0,1,3.75,17.95c.29,2.81.61,5.47.68,8,0,1.25.15,2.46.15,3.63s0,2.28,0,3.34c0,2.14-.15,4.06-.24,5.75-.06.85-.09,1.64-.16,2.36s-.17,1.37-.24,2c-.15,1.15-.26,2.06-.35,2.72,0,.29-.08.52-.1.71S75.35,449.41,75.34,449.4Z" style="fill:#263238"></path><path d="M96.05,330.08a1.08,1.08,0,0,1-.11.23l-.34.64-1.36,2.43c-.29.52-.64,1.1-1,1.75l-1.06,2.14c-.39.77-.79,1.59-1.23,2.45s-.81,1.83-1.24,2.82-.91,2-1.35,3.11-.86,2.24-1.32,3.42c-.23.59-.46,1.19-.69,1.81s-.43,1.25-.64,1.89c-.44,1.28-.88,2.6-1.34,4-1.68,5.45-3.28,11.52-4.63,18s-2.22,12.67-2.9,18.34-1,10.8-1.12,15.12c-.11,2.15-.13,4.11-.14,5.82s0,3.19,0,4.4,0,2.1,0,2.78v.73a.64.64,0,0,1,0,.24,1.48,1.48,0,0,1,0-.24c0-.19,0-.43,0-.72,0-.68-.08-1.61-.14-2.78s-.09-2.69-.09-4.41,0-3.67.06-5.83c.07-4.33.46-9.47,1-15.16s1.55-11.92,2.86-18.39,3-12.55,4.69-18l1.35-3.95c.22-.64.44-1.28.66-1.9s.47-1.21.71-1.8c.46-1.19.92-2.33,1.35-3.43s.94-2.11,1.38-3.1.86-1.93,1.28-2.81l1.27-2.44L93,335c.36-.65.72-1.21,1-1.73l1.44-2.39c.16-.24.29-.44.39-.61A1.18,1.18,0,0,1,96.05,330.08Z" style="fill:#263238"></path><path d="M93.34,404.72a10.26,10.26,0,0,1-.84,1.48c-.58.93-1.38,2.31-2.32,4s-2,3.81-3,6.18a82.72,82.72,0,0,0-2.92,7.89,81.65,81.65,0,0,0-2,8.16c-.48,2.55-.81,4.86-1,6.81s-.31,3.53-.36,4.63a9.44,9.44,0,0,1-.14,1.7,12.82,12.82,0,0,1-.06-1.71c0-1.1,0-2.69.19-4.65a68.92,68.92,0,0,1,.9-6.86,70.56,70.56,0,0,1,5-16.17,68.26,68.26,0,0,1,3.13-6.16c1-1.71,1.83-3.06,2.47-4A10.48,10.48,0,0,1,93.34,404.72Z" style="fill:#263238"></path><polygon points="60.01 441.72 94.94 441.72 90.71 477.4 64.36 477.4 60.01 441.72" style="fill:#455a64"></polygon><polygon points="61.28 473.55 64.25 477.4 90.71 477.4 93.76 473.67 61.28 473.55" style="fill:#263238"></polygon><path d="M93.58,452.21c0,.15-7.25.27-16.19.27s-16.19-.12-16.19-.27,7.24-.26,16.19-.26S93.58,452.07,93.58,452.21Z" style="fill:#fafafa"></path><path d="M93.58,454.59c0,.14-7.25.26-16.19.26s-16.19-.12-16.19-.26,7.24-.26,16.19-.26S93.58,454.45,93.58,454.59Z" style="fill:#fafafa"></path><path d="M93.14,456.89c0,.14-7,.26-15.62.26s-15.63-.12-15.63-.26,7-.26,15.63-.26S93.14,456.75,93.14,456.89Z" style="fill:#fafafa"></path><path d="M436.72,451.27a15.81,15.81,0,0,1,9.84-1.2,8.24,8.24,0,0,1,4.86,2.17c1.21,1.34,1.44,3.7.05,4.85a4.66,4.66,0,0,1-3.07.78c-2.6,0-5.49-.49-7.56,1.08-1.19.89-2,2.37-3.4,2.81a3.33,3.33,0,0,1-3.68-1.64,5.7,5.7,0,0,1-.42-4.22A6.44,6.44,0,0,1,436.72,451.27Z" style="fill:#FFC100"></path><path d="M429.86,438c1.83,2.61,5.39,1.75,7,.15s2.35-3.91,3-6.11c1.45-5,2.91-10.32,1.83-15.45a8.64,8.64,0,0,0-2-4.21,4.52,4.52,0,0,0-4.26-1.41c-1.79.47-2.9,2.23-3.71,3.9a36.84,36.84,0,0,0-3.64,15.81c0,2.55.29,5.22,1.73,7.32" style="fill:#FFC100"></path><path d="M424.83,441.78a9.49,9.49,0,0,0,1.48-8.75,16.8,16.8,0,0,0-5.18-7.52,27.86,27.86,0,0,0-9.28-5.48,10,10,0,0,0-4.18-.71,4.4,4.4,0,0,0-3.5,2.12c-1,1.86,0,4.12,1,6a71.37,71.37,0,0,0,6.1,9.28c1.83,2.36,3.92,4.68,6.7,5.75s5.68.94,7.16-1" style="fill:#FFC100"></path><path d="M429.73,477.46a5.38,5.38,0,0,0,.17-1.19c.08-.86.19-1.95.32-3.24s.35-3,.72-4.75a36.82,36.82,0,0,1,1.73-5.62,20.9,20.9,0,0,1,2.87-5.07,10.66,10.66,0,0,1,3.62-3,10.45,10.45,0,0,1,3-.95,4.68,4.68,0,0,0,1.18-.17,5.83,5.83,0,0,0-1.2,0,9.5,9.5,0,0,0-3.18.83,10.69,10.69,0,0,0-3.82,3,20.12,20.12,0,0,0-3,5.18,34.43,34.43,0,0,0-1.72,5.7,40.56,40.56,0,0,0-.63,4.82c-.1,1.37-.14,2.49-.16,3.26A5.9,5.9,0,0,0,429.73,477.46Z" style="fill:#263238"></path><path d="M430,475a2.61,2.61,0,0,0,0-.55v-1.57c0-1.37,0-3.35.07-5.79.12-4.89.54-10.15,1.35-17.57.77-7,1.8-15.09,2.89-20.37.24-1.2.47-2.28.7-3.22s.39-1.77.56-2.43.27-1.13.37-1.53a3.08,3.08,0,0,0,.1-.54,1.74,1.74,0,0,0-.2.51l-.45,1.51c-.21.66-.41,1.47-.65,2.41s-.51,2-.76,3.22a178.26,178.26,0,0,0-3.05,18.9c-.81,7.43-1.18,14.2-1.21,19.1,0,2.45,0,4.43.08,5.8,0,.64.08,1.16.1,1.58A2,2,0,0,0,430,475Z" style="fill:#263238"></path><path d="M430,461.91a10.81,10.81,0,0,0,0-1.64c-.06-1.06-.21-2.59-.5-4.46a58.38,58.38,0,0,0-1.46-6.5,52.7,52.7,0,0,0-2.71-7.69,41.17,41.17,0,0,0-8-12.43,19.16,19.16,0,0,0-1.88-1.74c-.29-.25-.54-.49-.8-.68l-.73-.5a10.43,10.43,0,0,0-1.39-.89,49.83,49.83,0,0,1,4.55,4.05,43.49,43.49,0,0,1,7.78,12.38,62.49,62.49,0,0,1,2.73,7.62,64.82,64.82,0,0,1,1.54,6.44c.34,1.85.54,3.36.66,4.41A11.87,11.87,0,0,0,430,461.91Z" style="fill:#263238"></path></g><g id="freepik--Books--inject-9"><path d="M137,213l1.94,2.47s9.6-15.37,20.74-16.95h0a2.19,2.19,0,0,0,2-.07l3.6-2.09a2.18,2.18,0,0,0,1-2.25h0s5.37-9.53,16.82-11l4.18-.79L158.55,156l-44.73,18.19Z" style="fill:#FFC100"></path><path d="M132.23,210.94l3.39,4.53s7.81-17.61,27.24-18.85l-19.12-19.76S129.94,205.51,132.23,210.94Z" style="fill:#ebebeb"></path><path d="M106.05,179.3s7.41-23.91,32-15.17l24.85,32.49S137.41,192,131.42,213Z" style="fill:#f5f5f5"></path><path d="M162.86,196.62s7.68-18.78,24.45-16.47l-24.45-28.42-24,13.52Z" style="fill:#ebebeb"></path><path d="M138,164.17s-2.79-14.2,8.18-20.39l7.19-3.74,25.15,28.16s-17.37,9.49-15.67,28.46Z" style="fill:#f5f5f5"></path><path d="M162.86,196.62a8.15,8.15,0,0,1-1-1.22c-.7-.88-1.6-2-2.7-3.44-2.3-3-5.39-7-8.8-11.4l-8.83-11.39-2.69-3.44a9.2,9.2,0,0,1-.94-1.3,12.45,12.45,0,0,1,1.1,1.17c.68.77,1.64,1.92,2.82,3.34,2.35,2.84,5.52,6.84,8.95,11.3s6.5,8.53,8.69,11.5l2.56,3.54A9.7,9.7,0,0,1,162.86,196.62Z" style="fill:#263238"></path><path d="M153.92,148.32a25.7,25.7,0,0,0-2.88,1.34,19.52,19.52,0,0,0-5.55,5.18,19,19,0,0,0-3.27,6.86c-.43,1.91-.37,3.15-.48,3.15a3.22,3.22,0,0,1-.08-.87,10.63,10.63,0,0,1,.2-2.36,17.57,17.57,0,0,1,3.21-7.09,17.92,17.92,0,0,1,5.79-5.19,10,10,0,0,1,2.2-.89A2.89,2.89,0,0,1,153.92,148.32Z" style="fill:#263238"></path><path d="M166.31,160.2c0,.1-1.13.61-2.79,1.81a20.42,20.42,0,0,0-2.69,2.34,22.18,22.18,0,0,0-2.69,3.45,22.71,22.71,0,0,0-1.9,3.93,20.83,20.83,0,0,0-.9,3.45c-.34,2-.29,3.3-.39,3.3a3.31,3.31,0,0,1-.1-.9,9.4,9.4,0,0,1,0-1.05,10.59,10.59,0,0,1,.11-1.4,18.55,18.55,0,0,1,.82-3.56,21.66,21.66,0,0,1,1.91-4,21.09,21.09,0,0,1,2.78-3.5,18.35,18.35,0,0,1,2.83-2.31,13.37,13.37,0,0,1,1.2-.73,7.48,7.48,0,0,1,1-.47A3.07,3.07,0,0,1,166.31,160.2Z" style="fill:#263238"></path><path d="M170.32,163.59c0,.1-1.24.66-3,2a24.47,24.47,0,0,0-2.92,2.58,30.74,30.74,0,0,0-3,3.71,29.06,29.06,0,0,0-2.28,4.18,21,21,0,0,0-1.2,3.7c-.48,2.16-.41,3.56-.51,3.56a3.13,3.13,0,0,1-.09-1,7.87,7.87,0,0,1,0-1.15,10.15,10.15,0,0,1,.2-1.51,19.2,19.2,0,0,1,1.11-3.81,26.55,26.55,0,0,1,2.3-4.29,27.74,27.74,0,0,1,3.07-3.76,22.56,22.56,0,0,1,3-2.54,13.79,13.79,0,0,1,1.29-.81,8.49,8.49,0,0,1,1-.53A4,4,0,0,1,170.32,163.59Z" style="fill:#263238"></path><path d="M172.83,166.81c0,.09-1.24.65-3,2a23.26,23.26,0,0,0-2.86,2.66,29.17,29.17,0,0,0-2.87,3.83,29.56,29.56,0,0,0-2.16,4.27,23.38,23.38,0,0,0-1.12,3.74c-.45,2.18-.38,3.58-.49,3.58a4,4,0,0,1-.08-1,6.61,6.61,0,0,1,0-1.15,10.2,10.2,0,0,1,.18-1.52,20.83,20.83,0,0,1,1-3.85,28.48,28.48,0,0,1,2.16-4.37,27.32,27.32,0,0,1,3-3.87,20,20,0,0,1,3-2.63,10.29,10.29,0,0,1,1.28-.84,7.39,7.39,0,0,1,1-.54A3.08,3.08,0,0,1,172.83,166.81Z" style="fill:#263238"></path><path d="M152.08,191.37c0,.09-1.39-.39-3.68-.59a19.26,19.26,0,0,0-8.75,1.31,19.06,19.06,0,0,0-7.15,5.21c-1.49,1.75-2.13,3-2.22,3a3.14,3.14,0,0,1,.41-.93,15.27,15.27,0,0,1,1.52-2.3,17.82,17.82,0,0,1,16.23-6.65,15.54,15.54,0,0,1,2.7.57A3.39,3.39,0,0,1,152.08,191.37Z" style="fill:#263238"></path><path d="M148.79,187.27c0,.09-1.39-.39-3.68-.59a18.6,18.6,0,0,0-15.91,6.52c-1.49,1.75-2.13,3.05-2.21,3a3.14,3.14,0,0,1,.41-.93,15.27,15.27,0,0,1,1.52-2.3,17.82,17.82,0,0,1,16.23-6.65,15.54,15.54,0,0,1,2.7.57A3.39,3.39,0,0,1,148.79,187.27Z" style="fill:#263238"></path><path d="M145.5,183.16c0,.1-1.39-.38-3.68-.58a18.6,18.6,0,0,0-15.91,6.52c-1.49,1.75-2.13,3-2.21,3a3.12,3.12,0,0,1,.4-.93,15.48,15.48,0,0,1,1.53-2.31,17.84,17.84,0,0,1,16.23-6.64,15.54,15.54,0,0,1,2.7.57A3.62,3.62,0,0,1,145.5,183.16Z" style="fill:#263238"></path><path d="M142.21,179.06c0,.1-1.4-.38-3.68-.58A18.57,18.57,0,0,0,122.62,185c-1.49,1.75-2.13,3-2.22,3a4.08,4.08,0,0,1,.41-.92,14.72,14.72,0,0,1,1.53-2.31,17.84,17.84,0,0,1,16.22-6.64,14.79,14.79,0,0,1,2.71.57A3.62,3.62,0,0,1,142.21,179.06Z" style="fill:#263238"></path><path d="M138.91,175c0,.1-1.39-.38-3.68-.58a18.57,18.57,0,0,0-15.9,6.52c-1.49,1.74-2.13,3-2.22,3a3.56,3.56,0,0,1,.41-.92,15.27,15.27,0,0,1,1.52-2.31A17.88,17.88,0,0,1,135.27,174a15.39,15.39,0,0,1,2.7.58A3.07,3.07,0,0,1,138.91,175Z" style="fill:#263238"></path><path d="M135.62,170.86c0,.09-1.39-.38-3.68-.58A18.57,18.57,0,0,0,116,176.8c-1.49,1.74-2.13,3-2.22,3a3.26,3.26,0,0,1,.41-.93,15.8,15.8,0,0,1,1.52-2.3A17.82,17.82,0,0,1,132,169.91a15.39,15.39,0,0,1,2.7.58A3.23,3.23,0,0,1,135.62,170.86Z" style="fill:#263238"></path><path d="M144.76,165.83l6.86,7.62s2.14-10.54,11.47-14.54l-7.25-7.73A18,18,0,0,0,144.76,165.83Z" style="fill:#ebebeb"></path><path d="M169.4,88.76l-1,2.23s14.09,1.15,19.18,8.31h0a1.68,1.68,0,0,0,.78,1.39l2.74,1.75a1.69,1.69,0,0,0,1.92-.11h0a18.78,18.78,0,0,1,13.66,7.72l2.05,2.61,9.09-30.34L188,58.81Z" style="fill:#FFC100"></path><path d="M169.13,84.73l-1.93,4s15-.89,22.82,12.13l6.86-20.33S172.07,81.2,169.13,84.73Z" style="fill:#ebebeb"></path><path d="M181.69,55.26s19.23-3.43,22,16.72L190,100.84s-5.93-19.28-22.61-15.93Z" style="fill:#f5f5f5"></path><path d="M190,100.84s15.78-1.4,20.18,11l11-27.13L203.18,73Z" style="fill:#ebebeb"></path><path d="M203.62,72s8.85-7,17.07-1.63L225.85,74l-10.51,27.51s-12.8-8.63-25.34-.66Z" style="fill:#f5f5f5"></path><path d="M190,100.84a6,6,0,0,1,.46-1.17c.37-.83.84-1.87,1.4-3.1l4.74-10.2,4.75-10.19,1.43-3.09a5.55,5.55,0,0,1,.59-1.11,6,6,0,0,1-.4,1.19c-.28.76-.73,1.83-1.29,3.16-1.12,2.65-2.75,6.28-4.61,10.26s-3.59,7.56-4.88,10.14c-.64,1.28-1.17,2.32-1.55,3A5.11,5.11,0,0,1,190,100.84Z" style="fill:#263238"></path><path d="M220.67,76.76c-.06.07-.84-.54-2.27-1.25a16.29,16.29,0,0,0-12-1c-1.51.47-2.39,1-2.43.87s.18-.17.57-.41a10.89,10.89,0,0,1,1.74-.81,14.64,14.64,0,0,1,6.27-.85,14.93,14.93,0,0,1,6.06,1.82,10.87,10.87,0,0,1,1.59,1.08C220.51,76.56,220.69,76.73,220.67,76.76Z" style="fill:#263238"></path><path d="M219.87,80.08c-.06.07-.85-.54-2.27-1.25a16.29,16.29,0,0,0-12-1c-1.52.47-2.39,1-2.44.87s.19-.17.58-.41a10.48,10.48,0,0,1,1.74-.81,14.59,14.59,0,0,1,6.27-.85,14.83,14.83,0,0,1,6.05,1.82,10.34,10.34,0,0,1,1.59,1.08C219.71,79.88,219.89,80.05,219.87,80.08Z" style="fill:#263238"></path><path d="M218.37,83.38c-.05.08-.84-.54-2.26-1.25a16.69,16.69,0,0,0-5.93-1.63,16.44,16.44,0,0,0-6.11.68c-1.51.48-2.39,1-2.43.88s.19-.18.58-.41a9.63,9.63,0,0,1,1.74-.82,14.88,14.88,0,0,1,6.26-.85,14.72,14.72,0,0,1,6.06,1.83,10.13,10.13,0,0,1,1.59,1.08C218.22,83.18,218.4,83.35,218.37,83.38Z" style="fill:#263238"></path><path d="M217.44,86.68c-.06.08-.85-.54-2.27-1.25a16.29,16.29,0,0,0-12-1c-1.52.48-2.39,1-2.44.88s.19-.18.58-.41a9.63,9.63,0,0,1,1.74-.82,14.9,14.9,0,0,1,6.27-.85,14.67,14.67,0,0,1,6.05,1.83,9.67,9.67,0,0,1,1.59,1.08C217.28,86.48,217.46,86.65,217.44,86.68Z" style="fill:#263238"></path><path d="M216.5,90.19c-.05.07-.84-.54-2.26-1.25a16.63,16.63,0,0,0-5.93-1.63,16.36,16.36,0,0,0-6.1.68c-1.52.47-2.39,1-2.44.87s.19-.17.58-.41a10.48,10.48,0,0,1,1.74-.81,14.9,14.9,0,0,1,6.27-.85,14.67,14.67,0,0,1,6,1.83A9.67,9.67,0,0,1,216,89.7C216.35,90,216.53,90.16,216.5,90.19Z" style="fill:#263238"></path><path d="M215.59,94.18c-.06.08-.91-.59-2.47-1.33a19.34,19.34,0,0,0-2.83-1.09,24.51,24.51,0,0,0-3.63-.73,22.32,22.32,0,0,0-3.71-.09,17.2,17.2,0,0,0-3,.48c-1.67.43-2.62,1-2.67.88a2.46,2.46,0,0,1,.64-.43,5.14,5.14,0,0,1,.81-.39,8.36,8.36,0,0,1,1.12-.41,15.23,15.23,0,0,1,3-.61,21.16,21.16,0,0,1,3.8.05,21.55,21.55,0,0,1,3.72.79,16.56,16.56,0,0,1,2.85,1.22,8.5,8.5,0,0,1,1,.61,5.4,5.4,0,0,1,.72.53C215.42,94,215.61,94.16,215.59,94.18Z" style="fill:#263238"></path><path d="M214.26,97.07c-.06.08-.91-.6-2.49-1.31a18.83,18.83,0,0,0-2.87-1,24,24,0,0,0-3.67-.61,22.91,22.91,0,0,0-3.72,0,17.83,17.83,0,0,0-3,.55c-1.67.45-2.62,1-2.67.9s.21-.18.64-.43a6.11,6.11,0,0,1,.81-.4,9.81,9.81,0,0,1,1.12-.43,16.27,16.27,0,0,1,3-.67,20.77,20.77,0,0,1,3.81-.07,20.51,20.51,0,0,1,3.76.67,15.49,15.49,0,0,1,2.9,1.15,9.64,9.64,0,0,1,1,.59,5.57,5.57,0,0,1,.73.53C214.09,96.86,214.29,97.05,214.26,97.07Z" style="fill:#263238"></path><path d="M189.81,91.49c-.09,0-.27-1.1-.95-2.75a15.21,15.21,0,0,0-4-5.57,14.92,14.92,0,0,0-6.15-3.09c-1.74-.42-2.86-.42-2.86-.51a2.18,2.18,0,0,1,.79-.07,11.82,11.82,0,0,1,2.15.22,13.86,13.86,0,0,1,10.45,8.89,10.7,10.7,0,0,1,.55,2.09A2.27,2.27,0,0,1,189.81,91.49Z" style="fill:#263238"></path><path d="M191.47,87.74c-.09,0-.26-1.1-.95-2.75a14.6,14.6,0,0,0-10.18-8.67c-1.74-.41-2.87-.41-2.87-.5a2.18,2.18,0,0,1,.79-.07,12.59,12.59,0,0,1,2.15.21,13.86,13.86,0,0,1,10.45,8.9,11.66,11.66,0,0,1,.56,2.09A2.09,2.09,0,0,1,191.47,87.74Z" style="fill:#263238"></path><path d="M193.14,84c-.09,0-.27-1.1-1-2.75A14.6,14.6,0,0,0,182,72.57c-1.74-.41-2.87-.41-2.86-.5a2.18,2.18,0,0,1,.79-.07,12.59,12.59,0,0,1,2.15.21,13.91,13.91,0,0,1,6.4,3.07,14.06,14.06,0,0,1,4.05,5.83,11.48,11.48,0,0,1,.55,2.09A2.27,2.27,0,0,1,193.14,84Z" style="fill:#263238"></path><path d="M194.8,80.24c-.09,0-.26-1.1-1-2.75a14.59,14.59,0,0,0-10.19-8.67c-1.73-.41-2.86-.41-2.86-.5a2.18,2.18,0,0,1,.79-.07,11.64,11.64,0,0,1,2.15.21,13.81,13.81,0,0,1,10.45,8.9,11.82,11.82,0,0,1,.56,2.08A2.14,2.14,0,0,1,194.8,80.24Z" style="fill:#263238"></path><path d="M196.47,76.49c-.09,0-.27-1.1-1-2.75a14.6,14.6,0,0,0-10.18-8.67c-1.74-.41-2.87-.41-2.86-.5a2.18,2.18,0,0,1,.79-.07,10.82,10.82,0,0,1,2.15.21,13.85,13.85,0,0,1,10.45,8.9,12.56,12.56,0,0,1,.55,2.08A2.32,2.32,0,0,1,196.47,76.49Z" style="fill:#263238"></path><path d="M198.13,72.73c-.09,0-.26-1.09-.95-2.74A14.59,14.59,0,0,0,187,61.32c-1.74-.42-2.86-.41-2.86-.5a2.18,2.18,0,0,1,.79-.07,10.82,10.82,0,0,1,2.15.21,13.85,13.85,0,0,1,10.45,8.9,10.82,10.82,0,0,1,.55,2.08A2.26,2.26,0,0,1,198.13,72.73Z" style="fill:#263238"></path><path d="M354.3,183.7l-1.68,2.66s17.68,3.93,22.89,13.91h0a2.2,2.2,0,0,0,.75,1.91l3.17,2.7a2.16,2.16,0,0,0,2.45.2h0s10.77,1.89,16,12.19L400,221,416.88,184,383.2,149Z" style="fill:#FFC100"></path><path d="M354.67,178.55l-3.15,4.71s19.21,1.5,26.85,19.4l12.26-24.61S359,174.58,354.67,178.55Z" style="fill:#ebebeb"></path><path d="M375.78,143.33s25-1,25,25.08l-22.36,34.25s-4.16-25.52-25.91-24.18Z" style="fill:#f5f5f5"></path><path d="M378.37,202.66s20.27,1,23.67,17.57l18.66-32.52L400,169.59Z" style="fill:#ebebeb"></path><path d="M400.69,168.43s12.46-7.37,21.95.92l5.92,5.53L410.39,208s-14.74-13.21-32.06-5.29Z" style="fill:#f5f5f5"></path><path d="M378.37,202.66a8.93,8.93,0,0,1,.8-1.39l2.34-3.68c2.06-3.17,4.8-7.41,7.83-12.1l7.8-12.12,2.34-3.68a9.56,9.56,0,0,1,.91-1.32,9.48,9.48,0,0,1-.73,1.42c-.5.91-1.26,2.19-2.21,3.78-1.9,3.16-4.61,7.48-7.67,12.2s-5.88,9-8,12l-2.48,3.6A9.48,9.48,0,0,1,378.37,202.66Z" style="fill:#263238"></path><path d="M421.5,177.46c-.07.07-.95-.86-2.63-2a20.26,20.26,0,0,0-3.11-1.76,22.58,22.58,0,0,0-4.14-1.38,22.81,22.81,0,0,0-4.34-.49,20.41,20.41,0,0,0-3.56.3c-2,.35-3.2.83-3.23.73a2.88,2.88,0,0,1,.81-.39,8.66,8.66,0,0,1,1-.35,13.07,13.07,0,0,1,1.35-.35,18.41,18.41,0,0,1,3.63-.42,21.57,21.57,0,0,1,4.45.46,21.08,21.08,0,0,1,4.24,1.45,19,19,0,0,1,3.12,1.9c.42.3.76.62,1.08.89a7.55,7.55,0,0,1,.75.74A3.27,3.27,0,0,1,421.5,177.46Z" style="fill:#263238"></path><path d="M419.9,181.54c-.08.07-1-.86-2.63-2a20.26,20.26,0,0,0-3.11-1.76,20.67,20.67,0,0,0-8.48-1.86,20.4,20.4,0,0,0-3.56.29c-2,.35-3.2.83-3.24.74a2.91,2.91,0,0,1,.82-.39,5.58,5.58,0,0,1,1-.35,11.52,11.52,0,0,1,1.36-.36,18.47,18.47,0,0,1,3.63-.41,20.92,20.92,0,0,1,4.45.45,21.2,21.2,0,0,1,4.23,1.46,17.58,17.58,0,0,1,3.12,1.89,12.22,12.22,0,0,1,1.08.9,6.81,6.81,0,0,1,.76.73A3.15,3.15,0,0,1,419.9,181.54Z" style="fill:#263238"></path><path d="M417.42,185.47c-.07.07-.95-.86-2.63-2a21.13,21.13,0,0,0-3.11-1.76,23.36,23.36,0,0,0-4.14-1.38,22.76,22.76,0,0,0-4.34-.48,21.61,21.61,0,0,0-3.56.29c-2,.36-3.2.83-3.23.74a3.09,3.09,0,0,1,.81-.39,7.1,7.1,0,0,1,1-.35,12.91,12.91,0,0,1,1.35-.36,18.56,18.56,0,0,1,3.63-.41,21.46,21.46,0,0,1,4.45.45,21.73,21.73,0,0,1,4.24,1.46,18.58,18.58,0,0,1,3.12,1.9,10.7,10.7,0,0,1,1.08.89,7.82,7.82,0,0,1,.76.73C417.24,185.2,417.45,185.44,417.42,185.47Z" style="fill:#263238"></path><path d="M379.73,190.75c-.09,0-.1-1.44-.67-3.66a18.57,18.57,0,0,0-11.45-12.83c-2.14-.82-3.58-1-3.56-1.09a3.51,3.51,0,0,1,1,.07,16.62,16.62,0,0,1,2.68.67A17.8,17.8,0,0,1,379.41,187a14.37,14.37,0,0,1,.36,2.74A3.08,3.08,0,0,1,379.73,190.75Z" style="fill:#263238"></path><path d="M382.5,186.28c-.09,0-.1-1.44-.67-3.66a18.58,18.58,0,0,0-11.44-12.83c-2.15-.82-3.59-1-3.57-1.09a3.51,3.51,0,0,1,1,.07,16.62,16.62,0,0,1,2.68.67,17.8,17.8,0,0,1,11.67,13.09,14.37,14.37,0,0,1,.36,2.74A2.77,2.77,0,0,1,382.5,186.28Z" style="fill:#263238"></path><path d="M385.27,181.81c-.09,0-.1-1.44-.67-3.66a18.58,18.58,0,0,0-11.44-12.83c-2.15-.82-3.59-1-3.57-1.09a3.51,3.51,0,0,1,1,.07,16.62,16.62,0,0,1,2.68.67A17.84,17.84,0,0,1,385,178.06a16.21,16.21,0,0,1,.36,2.74A2.88,2.88,0,0,1,385.27,181.81Z" style="fill:#263238"></path><path d="M388.05,177.34c-.1,0-.11-1.44-.68-3.66a18.58,18.58,0,0,0-11.44-12.83c-2.15-.82-3.58-1-3.57-1.09a3.51,3.51,0,0,1,1,.07,16.62,16.62,0,0,1,2.68.67,17.84,17.84,0,0,1,11.68,13.09,16.21,16.21,0,0,1,.36,2.74A3.48,3.48,0,0,1,388.05,177.34Z" style="fill:#263238"></path><path d="M390.82,172.87c-.1,0-.11-1.44-.68-3.66a18.58,18.58,0,0,0-11.44-12.83c-2.15-.82-3.58-1-3.57-1.09a3.51,3.51,0,0,1,1,.07,16.37,16.37,0,0,1,2.68.67,17.84,17.84,0,0,1,11.68,13.09,16.21,16.21,0,0,1,.36,2.74A3.48,3.48,0,0,1,390.82,172.87Z" style="fill:#263238"></path><path d="M393.59,168.4c-.1,0-.11-1.44-.68-3.66a18.58,18.58,0,0,0-11.44-12.83c-2.15-.82-3.58-1-3.57-1.09a3.51,3.51,0,0,1,1,.07,16.37,16.37,0,0,1,2.68.67,17.84,17.84,0,0,1,11.68,13.09,16.21,16.21,0,0,1,.36,2.74A3.48,3.48,0,0,1,393.59,168.4Z" style="fill:#263238"></path><path d="M395.63,185.47l-6.52,9.44s10-1.17,18.7,4.37l6-10.11s-9.24-7.26-18.22-3.7" style="fill:#ebebeb"></path></g></svg>