<svg xmlns="http://www.w3.org/2000/svg" xmlns:xlink="http://www.w3.org/1999/xlink" viewBox="0 0 500 500"><defs><clipPath id="clip-path--inject-39"><ellipse cx="378.13" cy="152.8" rx="30.39" ry="28.38" transform="translate(0.03 305.68) rotate(-44.02)" style="fill:#fff"></ellipse></clipPath><clipPath id="clip-path-2--inject-39"><ellipse cx="368.06" cy="299.85" rx="30.39" ry="28.38" transform="translate(-104.98 339.99) rotate(-44.02)" style="fill:#fff"></ellipse></clipPath><clipPath id="clip-path-3--inject-39"><ellipse cx="280.62" cy="226.33" rx="30.39" ry="28.38" transform="translate(-78.45 258.58) rotate(-44.02)" style="fill:#fff"></ellipse></clipPath><clipPath id="clip-path-4--inject-39"><circle cx="270.68" cy="209.69" r="50.36" style="fill:#fff"></circle></clipPath></defs><!--179-People search--><g id="background-complete--inject-39"><rect y="382.4" width="500" height="0.25" style="fill:#ebebeb"></rect><rect x="416.78" y="398.49" width="18.89" height="0.25" style="fill:#ebebeb"></rect><rect x="293.05" y="396.75" width="29.47" height="0.25" style="fill:#ebebeb"></rect><rect x="368.67" y="389.21" width="47.11" height="0.25" style="fill:#ebebeb"></rect><rect x="52.46" y="390.89" width="10.97" height="0.25" style="fill:#ebebeb"></rect><rect x="72.33" y="390.89" width="38.56" height="0.25" style="fill:#ebebeb"></rect><rect x="171" y="395.11" width="54.15" height="0.25" style="fill:#ebebeb"></rect><path d="M237,337.8H43.92a5.71,5.71,0,0,1-5.71-5.71V60.66A5.71,5.71,0,0,1,43.92,55H237a5.71,5.71,0,0,1,5.71,5.71V332.09A5.71,5.71,0,0,1,237,337.8ZM43.92,55.2a5.47,5.47,0,0,0-5.46,5.46V332.09a5.47,5.47,0,0,0,5.46,5.46H237a5.47,5.47,0,0,0,5.46-5.46V60.66A5.47,5.47,0,0,0,237,55.2Z" style="fill:#ebebeb"></path><path d="M453.31,337.8H260.21a5.72,5.72,0,0,1-5.71-5.71V60.66A5.72,5.72,0,0,1,260.21,55h193.1A5.71,5.71,0,0,1,459,60.66V332.09A5.71,5.71,0,0,1,453.31,337.8ZM260.21,55.2a5.47,5.47,0,0,0-5.46,5.46V332.09a5.47,5.47,0,0,0,5.46,5.46h193.1a5.47,5.47,0,0,0,5.46-5.46V60.66a5.47,5.47,0,0,0-5.46-5.46Z" style="fill:#ebebeb"></path><rect x="416.78" y="398.49" width="18.89" height="0.25" style="fill:#ebebeb"></rect><rect x="293.05" y="396.75" width="29.47" height="0.25" style="fill:#ebebeb"></rect><rect x="368.67" y="389.21" width="47.11" height="0.25" style="fill:#ebebeb"></rect><rect x="52.46" y="390.89" width="10.97" height="0.25" style="fill:#ebebeb"></rect><rect x="72.33" y="390.89" width="38.56" height="0.25" style="fill:#ebebeb"></rect><rect x="171" y="395.11" width="54.15" height="0.25" style="fill:#ebebeb"></rect><rect x="137.56" y="85.62" width="59.38" height="135.04" style="fill:#e6e6e6"></rect><rect x="141.19" y="85.62" width="59.38" height="135.04" style="fill:#f5f5f5"></rect><rect x="109.44" y="129.96" width="122.88" height="46.36" transform="translate(324.02 -17.74) rotate(90)" style="fill:#fff"></rect><rect x="131.24" y="151.77" width="122.88" height="2.74" transform="translate(345.82 -39.54) rotate(90)" style="fill:#e6e6e6"></rect><rect x="143.88" y="178.09" width="53.99" height="8.16" style="fill:#f5f5f5"></rect><rect x="143.88" y="102.42" width="53.99" height="8.16" style="fill:#f5f5f5"></rect><rect x="217.62" y="85.62" width="59.38" height="135.04" style="fill:#e6e6e6"></rect><rect x="221.24" y="85.62" width="59.38" height="135.04" style="fill:#f5f5f5"></rect><rect x="189.5" y="129.96" width="122.88" height="46.36" transform="translate(404.07 -97.8) rotate(90)" style="fill:#fff"></rect><rect x="211.3" y="151.77" width="122.88" height="2.74" transform="translate(425.88 -119.6) rotate(90)" style="fill:#e6e6e6"></rect><rect x="223.94" y="178.09" width="53.99" height="8.16" style="fill:#f5f5f5"></rect><rect x="223.94" y="102.42" width="53.99" height="8.16" style="fill:#f5f5f5"></rect><rect x="57.5" y="85.62" width="59.38" height="135.04" style="fill:#e6e6e6"></rect><rect x="61.13" y="85.62" width="59.38" height="135.04" style="fill:#f5f5f5"></rect><rect x="29.38" y="129.96" width="122.88" height="46.36" transform="translate(243.96 62.32) rotate(90)" style="fill:#fff"></rect><rect x="51.18" y="151.77" width="122.88" height="2.74" transform="translate(265.76 40.51) rotate(90)" style="fill:#e6e6e6"></rect><rect x="63.82" y="178.09" width="53.99" height="8.16" style="fill:#f5f5f5"></rect><rect x="63.82" y="102.42" width="53.99" height="8.16" style="fill:#f5f5f5"></rect><rect x="319.51" y="247.51" width="9.71" height="134.89" style="fill:#e6e6e6"></rect><rect x="326.1" y="247.51" width="5.72" height="134.89" style="fill:#f0f0f0"></rect><rect x="195.71" y="247.51" width="137.88" height="10.12" transform="translate(529.3 505.13) rotate(180)" style="fill:#f0f0f0"></rect><rect x="55.4" y="247.51" width="9.71" height="134.89" style="fill:#e6e6e6"></rect><rect x="61.21" y="247.51" width="5.72" height="134.89" style="fill:#f0f0f0"></rect><rect x="53.67" y="247.51" width="137.88" height="10.12" transform="translate(245.22 505.13) rotate(180)" style="fill:#e6e6e6"></rect><rect x="185.17" y="247.51" width="9.71" height="134.89" style="fill:#e6e6e6"></rect><rect x="191.76" y="247.51" width="5.72" height="134.89" style="fill:#f0f0f0"></rect><polygon points="170.17 202.64 242.17 202.64 247.82 245.15 175.83 245.15 170.17 202.64" style="fill:#e6e6e6"></polygon><polygon points="175.83 245.15 176.12 247.5 248.12 247.5 247.83 245.15 175.83 245.15" style="fill:#e6e6e6"></polygon><polygon points="172.39 202.64 244.38 202.64 250.04 245.15 178.04 245.15 172.39 202.64" style="fill:#f0f0f0"></polygon><polygon points="179.78 243.21 174.65 204.58 242.64 204.58 247.78 243.21 179.78 243.21" style="fill:#fff"></polygon><polygon points="196.8 245.15 197.09 247.5 276.38 247.5 276.08 245.15 196.8 245.15" style="fill:#f0f0f0"></polygon><path d="M326.9,211H291.26a24.8,24.8,0,0,0-24.82,21.63L261.23,272l-19.36-.07h-.06A16.86,16.86,0,0,0,224.6,287.5L223.46,301a8.65,8.65,0,0,0-7.37,7.47H311.7a24.78,24.78,0,0,0,24.8-21.61L344,230.36A17.33,17.33,0,0,0,326.9,211Zm-84,89.86h-14.3l1.08-12.42a12.44,12.44,0,0,1,12.7-11.52h.05l18.16.06-1.27,9.57A16.41,16.41,0,0,1,242.87,300.86Z" style="fill:#e0e0e0"></path><polygon points="238.17 308.43 233.21 308.43 221.59 382.4 226.55 382.4 238.17 308.43" style="fill:#f0f0f0"></polygon><polygon points="256.79 308.43 251.83 308.43 240.2 382.4 245.16 382.4 256.79 308.43" style="fill:#f0f0f0"></polygon><polygon points="300.47 308.43 305.43 308.43 317.06 382.4 312.1 382.4 300.47 308.43" style="fill:#f0f0f0"></polygon><polygon points="281.86 308.43 286.82 308.43 298.44 382.4 293.48 382.4 281.86 308.43" style="fill:#f0f0f0"></polygon><rect x="342.92" y="87.99" width="96.69" height="202.01" style="fill:#e6e6e6"></rect><rect x="344.71" y="87.99" width="101.62" height="202.01" style="fill:#f0f0f0"></rect><rect x="303.03" y="146.7" width="184.98" height="84.6" transform="translate(584.51 -206.52) rotate(90)" style="fill:#fafafa"></rect><polygon points="383.21 281.49 393.69 96.5 407.83 96.5 397.35 281.49 383.21 281.49" style="fill:#fff"></polygon><polygon points="400.02 281.49 410.5 96.5 424.64 96.5 414.16 281.49 400.02 281.49" style="fill:#fff"></polygon></g><g id="Shadow--inject-39"><ellipse id="path--inject-39" cx="250" cy="416.24" rx="193.89" ry="11.32" style="fill:#f5f5f5"></ellipse></g><g id="People--inject-39"><polygon points="240.81 121.6 225.3 348.09 414.42 348.09 431.55 97.87 266.17 97.87 240.81 121.6" style="fill:#FFC100"></polygon><polygon points="240.81 121.6 225.3 348.09 414.42 348.09 431.55 97.87 266.17 97.87 240.81 121.6" style="fill:#fff;opacity:0.8"></polygon><ellipse cx="378.13" cy="152.8" rx="32.08" ry="29.96" transform="translate(0.03 305.68) rotate(-44.02)" style="fill:#FFC100"></ellipse><ellipse cx="378.13" cy="152.8" rx="30.39" ry="28.38" transform="translate(0.03 305.68) rotate(-44.02)" style="fill:#fff"></ellipse><g style="clip-path:url(#clip-path--inject-39)"><path d="M370.41,163l-5.78-.38s-2.69,13.84-4.41,15c-2.35,1.63-7,5.57-10.09,7a5.61,5.61,0,0,0-.19,2.91c4.8,0,13.68-4.78,15.21-6.86C368.66,176,370.41,163,370.41,163Z" style="fill:#ffc3bd"></path><path d="M373.17,154.32c1.75,3.26-3.7,15-3.7,15L362.05,167a31.37,31.37,0,0,1,2.47-10.48C366.36,152.69,371.25,150.74,373.17,154.32Z" style="fill:#263238"></path><path d="M367.5,160.32c1,2.36-.31,8.06-1.34,11.67C363.65,167.69,363.3,163.69,367.5,160.32Z" style="opacity:0.2"></path><path d="M367.47,154.9c-1.14,4.17-3.38,15.12-1.55,32.31h19.53c.45-3.27-.12-19.24,4.47-34.65a52,52,0,0,0-7.05-.9,78.19,78.19,0,0,0-9.06,0,21.76,21.76,0,0,0-3.81.7A3.62,3.62,0,0,0,367.47,154.9Z" style="fill:#263238"></path><path d="M384.94,156.36c-.59,2.54-.36,8.61,1.41,15.63a105.11,105.11,0,0,1,3.13-17.9v0C388.09,153.92,385.5,154,384.94,156.36Z" style="opacity:0.2"></path><path d="M382.47,143.18c-.84,2.92-1.46,6.53.4,8.48,0,0-1.45,3-6.86,3-4.95,0-2.2-3-2.2-3,3.32-.78,3.53-4.8,3.17-7.06Z" style="fill:#ffc3bd"></path><path d="M376,154.61a5.54,5.54,0,0,1,.78,2.8s7-2.39,7-5.9c0,0-.91-.57-1.48-1C382.32,150.48,381.85,153.21,376,154.61Z" style="fill:#fff"></path><path d="M375.81,154.61a7.33,7.33,0,0,0-1.38,2.59,4.89,4.89,0,0,1-1.63-5.54,12.09,12.09,0,0,1,1.79-.56S373.74,153.86,375.81,154.61Z" style="fill:#fff"></path><path d="M377,144.6a8.83,8.83,0,0,1-.47,4.78,5.37,5.37,0,0,0,1.49-.44c1.92-.87,2.95-2.23,4.08-4.24.11-.52.25-1,.39-1.52Z" style="opacity:0.2"></path><path d="M372.25,141.9a3.34,3.34,0,0,0,1.83,2c1.17.5,2-.57,1.93-1.8s-.81-2.71-2.1-2.69A1.86,1.86,0,0,0,372.25,141.9Z" style="fill:#ffc3bd"></path><path d="M372.25,141.9a3.34,3.34,0,0,0,1.83,2c1.17.5,2-.57,1.93-1.8s-.81-2.71-2.1-2.69A1.86,1.86,0,0,0,372.25,141.9Z" style="opacity:0.2"></path><path d="M377.48,133.73c-.38-2.31-3.79,1.75-3.06,3.89S377.9,136.33,377.48,133.73Z" style="fill:#263238"></path><path d="M384.78,139.59c-1.25,3.87-1.79,6.18-4.24,7.84a4.87,4.87,0,0,1-7.82-4.16c.1-3.66,2.13-9.37,6.27-10.27S386,135.72,384.78,139.59Z" style="fill:#ffc3bd"></path><path d="M383.64,137.3c-4.22-.6-10.28-1.38-8.08-4.83,2.09-3.29,10.43-2.69,7.9-1.23,3.27.19,7.43,1.76,4.29,2.84,2.53,1.8,1.53,6.62-3.3,8.3C383.06,140.36,382,139.47,383.64,137.3Z" style="fill:#263238"></path><path d="M385.38,144.2a4.14,4.14,0,0,1-2.69,1.24c-1.32.07-1.57-1.19-.86-2.28s2.09-2.2,3.25-1.75S386.27,143.28,385.38,144.2Z" style="fill:#ffc3bd"></path><path d="M378.71,139.67c-.08.32-.31.54-.52.51s-.3-.32-.21-.64.31-.55.51-.51S378.8,139.35,378.71,139.67Z" style="fill:#263238"></path><path d="M375.2,139.05c-.08.32-.31.55-.51.51s-.3-.32-.22-.64.31-.54.52-.51S375.29,138.73,375.2,139.05Z" style="fill:#263238"></path><path d="M376.28,139.41a13.29,13.29,0,0,1-2.2,2.46,1.7,1.7,0,0,0,1.41.54Z" style="fill:#ed847e"></path><path d="M376.17,143.45a.09.09,0,0,1-.07-.11.12.12,0,0,1,.12-.08,2.72,2.72,0,0,0,2.26-.63.09.09,0,0,1,.13,0,.1.1,0,0,1,0,.14A2.88,2.88,0,0,1,376.17,143.45Z" style="fill:#263238"></path><path d="M380.07,138.69a.15.15,0,0,1-.12-.1,1.34,1.34,0,0,0-1-.83.16.16,0,0,1-.15-.2.21.21,0,0,1,.22-.17,1.66,1.66,0,0,1,1.29,1,.2.2,0,0,1-.11.25A.17.17,0,0,1,380.07,138.69Z" style="fill:#263238"></path><path d="M374,137.5a.1.1,0,0,1-.07,0,.18.18,0,0,1,0-.26,2.07,2.07,0,0,1,1.63-.73.18.18,0,0,1,.15.21.21.21,0,0,1-.23.17h0a1.64,1.64,0,0,0-1.28.59A.18.18,0,0,1,374,137.5Z" style="fill:#263238"></path><path d="M391.64,157.91l-5.29,2.81s5.11,12.6,4.24,14.49c-1.19,2.58-3.16,8.25-5.1,11.06a5.11,5.11,0,0,0,1.41,2.46c4.24-2.56,9.45-11.21,9.68-13.71C397.1,169.31,391.64,157.91,391.64,157.91Z" style="fill:#ffc3bd"></path><path d="M389.92,152.56c3.7.65,6.42,13.83,6.42,13.83L387.22,169a67.69,67.69,0,0,1-3.21-9.34C382.8,154.78,386,151.85,389.92,152.56Z" style="fill:#263238"></path><path d="M387.41,185.8l-3.77-.27,1.62,4.18s3.32.13,4.1-2.41Z" style="fill:#ffc3bd"></path><polygon points="380.38 187.45 382.05 191.15 385.26 189.71 383.64 185.53 380.38 187.45" style="fill:#ffc3bd"></polygon></g><ellipse cx="368.06" cy="299.85" rx="32.08" ry="29.96" transform="translate(-104.98 340) rotate(-44.02)" style="fill:#FFC100"></ellipse><ellipse cx="368.06" cy="299.85" rx="30.39" ry="28.38" transform="translate(-104.98 339.99) rotate(-44.02)" style="fill:#fff"></ellipse><g style="clip-path:url(#clip-path-2--inject-39)"><path d="M357.84,310.34l-5.43-1.77s-5.91,13-7.84,13.78c-2.64,1-8,3.81-11.31,4.48a5.88,5.88,0,0,0-.9,2.83c4.58,1.18,14.21-1.42,16.18-3.11C353,322.71,357.84,310.34,357.84,310.34Z" style="fill:#ffb573"></path><path d="M362.57,302.41c.88,3.64-7.16,13.95-7.16,13.95l-6.51-4.12a32.69,32.69,0,0,1,4.89-9.75C356.47,299.16,361.6,298.42,362.57,302.41Z" style="fill:#FFC100"></path><path d="M362.57,302.41c.88,3.64-7.16,13.95-7.16,13.95l-6.51-4.12a32.69,32.69,0,0,1,4.89-9.75C356.47,299.16,361.6,298.42,362.57,302.41Z" style="opacity:0.30000000000000004"></path><path d="M357.49,306.94c.61,2.52.06,6.55-1.55,10C354.51,314.77,352.84,309.6,357.49,306.94Z" style="opacity:0.2"></path><path d="M357.4,302c-1.14,4.17-3.37,15.12-1.55,32.31h19.54c.45-3.27-.13-19.24,4.46-34.65a52,52,0,0,0-7.05-.9,78.2,78.2,0,0,0-9.06,0,21.94,21.94,0,0,0-3.81.7A3.64,3.64,0,0,0,357.4,302Z" style="fill:#FFC100"></path><path d="M357.4,302c-1.14,4.17-3.37,15.12-1.55,32.31h19.54c.45-3.27-.13-19.24,4.46-34.65a52,52,0,0,0-7.05-.9,78.2,78.2,0,0,0-9.06,0,21.94,21.94,0,0,0-3.81.7A3.64,3.64,0,0,0,357.4,302Z" style="opacity:0.30000000000000004"></path><path d="M374.94,306.69c-.59,2.54-1.11,8.57,1.34,12.35a105.19,105.19,0,0,1,3.14-17.9v0C378,301,375.5,304.31,374.94,306.69Z" style="opacity:0.2"></path><g style="opacity:0.9500000000000001"><path d="M365.69,306.56l-1.07.47-.82-.74a6.72,6.72,0,0,1-2.09-7.29,19.43,19.43,0,0,1,2-.29,78.2,78.2,0,0,1,9.06,0c.7,0,1.4.09,2.08.16l-.68.87A25.11,25.11,0,0,1,365.69,306.56Z" style="fill:#fff"></path></g><path d="M372.41,290.23c-.85,2.92-1.47,6.53.39,8.48a23.25,23.25,0,0,1-7.74,6.21,4.93,4.93,0,0,1-1.32-6.21c3.33-.78,3.53-4.8,3.17-7.06Z" style="fill:#ffb573"></path><path d="M366.91,291.65a8.83,8.83,0,0,1-.47,4.78,5.53,5.53,0,0,0,1.5-.44c1.91-.87,2.94-2.23,4.07-4.24.12-.52.25-1,.4-1.52Z" style="opacity:0.2"></path><path d="M362.18,289a3.32,3.32,0,0,0,1.84,2c1.17.5,2-.57,1.92-1.8s-.81-2.71-2.09-2.69A1.86,1.86,0,0,0,362.18,289Z" style="fill:#ffb573"></path><path d="M362.18,289a3.32,3.32,0,0,0,1.84,2c1.17.5,2-.57,1.92-1.8s-.81-2.71-2.09-2.69A1.86,1.86,0,0,0,362.18,289Z" style="opacity:0.2"></path><path d="M366.81,282.11c-.38-2.61-3.28.38-3.61,2.29s1.27,3.84,2.36,2S367,283.52,366.81,282.11Z" style="fill:#263238"></path><path d="M374.71,286.64c-1.25,3.87-1.79,6.17-4.24,7.84a4.87,4.87,0,0,1-7.82-4.16c.1-3.66,2.13-9.37,6.27-10.27S376,282.77,374.71,286.64Z" style="fill:#ffb573"></path><path d="M372.82,290.69c-1.5-1-1.77-1.38-1-2.28,1.3-1.46-.63-1.67.39-3.48,1.42-2.52-3.11-.75-3.19-2.58-.07-1.49-4,1.19-4.41-.53-.59-2.58,3.19-2.1,3.85-3.36s4.54-1.45,5.16.39,2.57.37,3.84,2.61-1.36,2.41-.09,4.59c1,1.75-.93,3-2.3,4.39C374.25,291.34,373.75,291.32,372.82,290.69Z" style="fill:#263238"></path><path d="M375.56,290.72a4.12,4.12,0,0,1-2.58,1.47c-1.32.18-1.68-1-1.06-2.19s1.9-2.36,3.1-2S376.37,289.73,375.56,290.72Z" style="fill:#ffb573"></path><path d="M368.64,286.72c-.08.32-.31.54-.51.51s-.3-.32-.22-.64.31-.55.52-.51S368.73,286.4,368.64,286.72Z" style="fill:#263238"></path><path d="M365.14,286.1c-.09.32-.32.55-.52.51s-.3-.32-.22-.64.32-.54.52-.51S365.22,285.78,365.14,286.1Z" style="fill:#263238"></path><path d="M366.21,286.46a13.09,13.09,0,0,1-2.19,2.46,1.7,1.7,0,0,0,1.41.54Z" style="fill:#ed893e"></path><path d="M366.1,290.5a.08.08,0,0,1-.06-.11.1.1,0,0,1,.11-.08,2.72,2.72,0,0,0,2.26-.63.09.09,0,1,1,.13.13A2.88,2.88,0,0,1,366.1,290.5Z" style="fill:#263238"></path><path d="M370,285.74a.15.15,0,0,1-.12-.1,1.34,1.34,0,0,0-1-.83.17.17,0,0,1-.15-.2.21.21,0,0,1,.22-.17,1.66,1.66,0,0,1,1.29,1,.2.2,0,0,1-.11.25A.17.17,0,0,1,370,285.74Z" style="fill:#263238"></path><path d="M363.89,284.55a.13.13,0,0,1-.07,0,.18.18,0,0,1,0-.26,2,2,0,0,1,1.62-.73.18.18,0,0,1,.15.21.21.21,0,0,1-.22.17h0a1.62,1.62,0,0,0-1.28.59A.2.2,0,0,1,363.89,284.55Z" style="fill:#263238"></path><path d="M382,305.41l-5.56,2.12s3.39,13.27,2.29,15.05c-1.5,2.43-4.17,7.85-6.44,10.41a5.12,5.12,0,0,0,1.07,2.64c4.49-2,10.74-10,11.29-12.47C385.88,317.51,382,305.41,382,305.41Z" style="fill:#ffb573"></path><path d="M381,299.83c3.55,1.13,4.52,14.66,4.52,14.66l-9.3,1.44a68.35,68.35,0,0,1-1.94-9.75C373.7,301.14,377.18,298.62,381,299.83Z" style="fill:#FFC100"></path><path d="M381,299.83c3.55,1.13,4.52,14.66,4.52,14.66l-9.3,1.44a68.35,68.35,0,0,1-1.94-9.75C373.7,301.14,377.18,298.62,381,299.83Z" style="opacity:0.30000000000000004"></path><path d="M374.21,332.77l-3.67-.76,1.06,4.39s3.24.56,4.34-1.88Z" style="fill:#ffb573"></path><polygon points="367.1 333.52 368.26 337.43 371.6 336.4 370.54 332.01 367.1 333.52" style="fill:#ffb573"></polygon></g><ellipse cx="280.62" cy="226.33" rx="32.08" ry="29.96" transform="translate(-78.45 258.58) rotate(-44.02)" style="fill:#FFC100"></ellipse><ellipse cx="280.62" cy="226.33" rx="30.39" ry="28.38" transform="translate(-78.45 258.58) rotate(-44.02)" style="fill:#fff"></ellipse><g style="clip-path:url(#clip-path-3--inject-39)"><path d="M292.91,233.25c.15,2.38.27,4.78.36,7.17l.29,7.14.05.87.07.76c.08.52.14,1.06.25,1.62.21,1.1.48,2.22.8,3.34.6,2.25,1.33,4.52,2,6.76l-2.07,1a54.11,54.11,0,0,1-3.31-6.59c-.46-1.15-.89-2.32-1.26-3.55a18.19,18.19,0,0,1-.49-1.9l-.17-1-.1-.92c-.53-4.84-.88-9.61-1.07-14.42Z" style="fill:#ff8b7b"></path><path d="M291.81,228c1.82.47,2.6,8.13,2.6,8.13L287,241s-2.31-9.07-.74-11.11S289.14,227.32,291.81,228Z" style="fill:#FFC100"></path><polygon points="291.52 229.72 292.42 237.43 289.41 239.39 291.52 229.72" style="opacity:0.2"></polygon><path d="M296.79,260.39l2,4.25-3.94.11s-1.15-3,.07-4.53Z" style="fill:#ffb573"></path><path d="M271.5,208.28c-3.13.45-9.68,15.41,1,22.39s18.56-.95,18.56-.95-6.5-7.72-5.56-12.76,5-11.39-3.32-13.51C276.32,202,268.44,203.4,271.5,208.28Z" style="fill:#263238"></path><polygon points="298.97 266.74 295.63 266.46 294.89 264.75 298.84 264.64 298.97 266.74" style="fill:#ffb573"></polygon><path d="M291.81,228s2.09.76-4,27.24H269.46c.82-7.46,1.14-12.06-1.38-27.37a55.33,55.33,0,0,1,7.86-1,59.16,59.16,0,0,1,8.32,0C287.81,227.18,291.81,228,291.81,228Z" style="fill:#FFC100"></path><path d="M269.18,233.94c1.63.41,3,2.22,2.63,5.56a8.66,8.66,0,0,1-1.82,4.2c-.11-2.57-.4-5.55-.92-9.36Z" style="opacity:0.2"></path><path d="M282.89,232.72s-3.17,2.48-3.35,5.11c-2.37-1.83-5.4-6.81-5.53-10a1,1,0,0,1,1-1,5.79,5.79,0,0,0,.67-.09.62.62,0,0,1,.53.13Z" style="fill:#fafafa"></path><path d="M282.89,232.72a6.2,6.2,0,0,1,2.91,4.91c2.66-1.85,1.75-7.38.52-10.09a1.32,1.32,0,0,0-1.07-.77c-.36,0-.64-.09-.83-.13a.27.27,0,0,0-.31.21Z" style="fill:#fafafa"></path><path d="M277.4,217.48c.34,2.68.53,7.59-1.46,9.37a21.26,21.26,0,0,0,6.95,5.87c3.92-3,1.37-5.87,1.37-5.87-2.94-.71-2.71-2.92-2.05-5Z" style="fill:#ff8b7b"></path><path d="M279.36,219.26l2.85,2.58a8.86,8.86,0,0,0-.36,1.48c-1.13-.17-2.85-1.14-3-2.38A3.79,3.79,0,0,1,279.36,219.26Z" style="opacity:0.2"></path><path d="M273.21,213.18c.94,4.31,1.25,6.15,3.83,7.9a6,6,0,0,0,9.45-4.41c.35-4.13-1.25-10.48-5.85-11.26A6.55,6.55,0,0,0,273.21,213.18Z" style="fill:#ff8b7b"></path><path d="M274.44,217.06c2.77-2.64,2.87-5.91,2.17-6.93,2.38-.2,8.54-1.7,7.55-4s-10.58-3.54-11.9,2.34C269.08,211.13,271.11,216.46,274.44,217.06Z" style="fill:#263238"></path><path d="M280.45,212.79c.06.36.29.6.53.55s.38-.38.32-.73-.29-.61-.52-.55S280.4,212.44,280.45,212.79Z" style="fill:#263238"></path><path d="M284.53,211.9c.05.36.29.6.52.55s.39-.38.33-.74-.29-.6-.52-.55A.62.62,0,0,0,284.53,211.9Z" style="fill:#263238"></path><path d="M284.75,211.21l.83-.44S285.24,211.53,284.75,211.21Z" style="fill:#263238"></path><path d="M283.37,212.82a9,9,0,0,0,1.63,2,1.67,1.67,0,0,1-1.25.52Z" style="fill:#ff5652"></path><path d="M282,217.14a3.64,3.64,0,0,0,.54-.07.12.12,0,0,0,.09-.13.09.09,0,0,0-.12-.08,2.75,2.75,0,0,1-2.5-.59.11.11,0,0,0-.15,0,.1.1,0,0,0,0,.15A2.77,2.77,0,0,0,282,217.14Z" style="fill:#263238"></path><path d="M272.63,217.48a3,3,0,0,0,2,1.37c1.12.21,1.65-.83,1.32-1.84s-1.24-2.11-2.35-1.86A1.54,1.54,0,0,0,272.63,217.48Z" style="fill:#ff8b7b"></path><path d="M278.54,212a.22.22,0,0,0,.19-.17,2.76,2.76,0,0,1,1.44-1.52.22.22,0,0,0,.12-.29.2.2,0,0,0-.27-.1,3.22,3.22,0,0,0-1.71,1.83.2.2,0,0,0,.16.25A.08.08,0,0,0,278.54,212Z" style="fill:#263238"></path><path d="M285.52,209.06a.23.23,0,0,0,.19-.1.22.22,0,0,0,0-.3,2.12,2.12,0,0,0-1.92-.25.23.23,0,0,0-.13.28.21.21,0,0,0,.28.12,1.62,1.62,0,0,1,1.51.21Z" style="fill:#263238"></path><path d="M280.68,212.1l.83-.44S281.16,212.43,280.68,212.1Z" style="fill:#263238"></path><path d="M269.26,254.17l-.58,1.64c-.08.13.07.26.28.26h18.86c.17,0,.31-.08.33-.19l.27-1.64c0-.11-.11-.21-.3-.21H269.57A.35.35,0,0,0,269.26,254.17Z" style="fill:#FFC100"></path><path d="M269.26,254.17l-.58,1.64c-.08.13.07.26.28.26h18.86c.17,0,.31-.08.33-.19l.27-1.64c0-.11-.11-.21-.3-.21H269.57A.35.35,0,0,0,269.26,254.17Z" style="fill:#fff;opacity:0.2"></path><path d="M271.67,256.24h-.5c-.1,0-.17-.05-.16-.11l.38-2.13c0-.06.1-.11.2-.11h.5c.1,0,.17.05.16.11l-.38,2.13C271.86,256.19,271.77,256.24,271.67,256.24Z" style="fill:#FFC100"></path><path d="M271.67,256.24h-.5c-.1,0-.17-.05-.16-.11l.38-2.13c0-.06.1-.11.2-.11h.5c.1,0,.17.05.16.11l-.38,2.13C271.86,256.19,271.77,256.24,271.67,256.24Z" style="opacity:0.4"></path><path d="M286.41,256.24h-.5c-.1,0-.17-.05-.16-.11l.38-2.13c0-.06.1-.11.2-.11h.5c.1,0,.17.05.16.11l-.38,2.13C286.6,256.19,286.51,256.24,286.41,256.24Z" style="fill:#FFC100"></path><path d="M286.41,256.24h-.5c-.1,0-.17-.05-.16-.11l.38-2.13c0-.06.1-.11.2-.11h.5c.1,0,.17.05.16.11l-.38,2.13C286.6,256.19,286.51,256.24,286.41,256.24Z" style="opacity:0.4"></path><path d="M279.07,256.24h-.5c-.1,0-.17-.05-.16-.11l.38-2.13c0-.06.1-.11.2-.11h.5c.1,0,.17.05.16.11l-.38,2.13C279.26,256.19,279.17,256.24,279.07,256.24Z" style="fill:#FFC100"></path><path d="M279.07,256.24h-.5c-.1,0-.17-.05-.16-.11l.38-2.13c0-.06.1-.11.2-.11h.5c.1,0,.17.05.16.11l-.38,2.13C279.26,256.19,279.17,256.24,279.07,256.24Z" style="opacity:0.4"></path><path d="M280.22,258.9l4.59-2-1.57,4.41s-2.87.65-4-.77Z" style="fill:#ffb573"></path><path d="M270.12,234c-.52,3-1.11,6.09-1.71,9.13-.29,1.52-.62,3-.94,4.55l-.47,2.27-.21,1a.33.33,0,0,0,0,.22,2.87,2.87,0,0,0,.76,1.1,9.62,9.62,0,0,0,1.52,1.21,30.3,30.3,0,0,0,3.83,2.07c1.35.63,2.75,1.21,4.17,1.74s2.87,1,4.3,1.52l-.52,2.23a55.5,55.5,0,0,1-9.23-2.34,28.38,28.38,0,0,1-4.51-2,14.31,14.31,0,0,1-2.21-1.52,6.63,6.63,0,0,1-2-2.62,4.51,4.51,0,0,1-.28-2c.05-.43.07-.52.1-.73l.09-.58.35-2.29c.25-1.53.47-3.06.74-4.59.51-3.05,1-6.1,1.63-9.14Z" style="fill:#ff8b7b"></path><path d="M268.08,227.88c-1.87.56-4.51,6.88-4.51,6.88l6,6.61s3.76-6.8,3.16-9.17S270.22,227.24,268.08,227.88Z" style="fill:#FFC100"></path><polygon points="288.43 257.83 286.92 261.46 283.24 261.32 284.81 256.91 288.43 257.83" style="fill:#ffb573"></polygon></g><path d="M257.32,149.85H329a2.68,2.68,0,0,0,2.63-2.47h0a2.27,2.27,0,0,0-2.3-2.46H257.66a2.69,2.69,0,0,0-2.64,2.46h0A2.28,2.28,0,0,0,257.32,149.85Z" style="fill:#FFC100;opacity:0.30000000000000004"></path><path d="M277.12,160.69h51.11a2.7,2.7,0,0,0,2.64-2.47h0a2.27,2.27,0,0,0-2.3-2.46H277.46a2.69,2.69,0,0,0-2.64,2.46h0A2.28,2.28,0,0,0,277.12,160.69Z" style="fill:#FFC100;opacity:0.30000000000000004"></path><path d="M289.06,139h40.66a2.67,2.67,0,0,0,2.63-2.46h0a2.28,2.28,0,0,0-2.29-2.47H289.4a2.68,2.68,0,0,0-2.63,2.47h0A2.27,2.27,0,0,0,289.06,139Z" style="fill:#fff"></path><path d="M289.15,308.23h29a2.27,2.27,0,0,1,2.3,2.46h0a2.68,2.68,0,0,1-2.64,2.47h-29a2.28,2.28,0,0,1-2.3-2.47h0A2.68,2.68,0,0,1,289.15,308.23Z" style="fill:#FFC100;opacity:0.30000000000000004"></path><path d="M249.88,308.23h29a2.27,2.27,0,0,1,2.3,2.46h0a2.7,2.7,0,0,1-2.64,2.47h-29a2.28,2.28,0,0,1-2.3-2.47h0A2.67,2.67,0,0,1,249.88,308.23Z" style="fill:#FFC100;opacity:0.30000000000000004"></path><path d="M267.76,297.39h51.11a2.27,2.27,0,0,1,2.3,2.46h0a2.68,2.68,0,0,1-2.63,2.47H267.42a2.27,2.27,0,0,1-2.29-2.47h0A2.67,2.67,0,0,1,267.76,297.39Z" style="fill:#FFC100;opacity:0.30000000000000004"></path><path d="M261,286.54h58.6a2.27,2.27,0,0,1,2.29,2.47h0a2.67,2.67,0,0,1-2.63,2.46H260.69a2.27,2.27,0,0,1-2.3-2.46h0A2.68,2.68,0,0,1,261,286.54Z" style="fill:#fff"></path><path d="M382.8,234.7H329.4a2.68,2.68,0,0,0-2.63,2.47h0a2.27,2.27,0,0,0,2.29,2.46h53.4a2.67,2.67,0,0,0,2.63-2.46h0A2.27,2.27,0,0,0,382.8,234.7Z" style="fill:#FFC100;opacity:0.30000000000000004"></path><path d="M355.34,223.86h-25.2a2.68,2.68,0,0,0-2.63,2.47h0a2.27,2.27,0,0,0,2.3,2.46H355a2.69,2.69,0,0,0,2.64-2.46h0A2.28,2.28,0,0,0,355.34,223.86Z" style="fill:#FFC100;opacity:0.30000000000000004"></path><path d="M370.09,213h-39.2a2.69,2.69,0,0,0-2.64,2.46h0a2.28,2.28,0,0,0,2.3,2.47h39.21a2.67,2.67,0,0,0,2.63-2.47h0A2.27,2.27,0,0,0,370.09,213Z" style="fill:#fff"></path><path d="M401.8,223.86H366a2.7,2.7,0,0,0-2.64,2.47h0a2.27,2.27,0,0,0,2.3,2.46h35.8a2.69,2.69,0,0,0,2.64-2.46h0A2.28,2.28,0,0,0,401.8,223.86Z" style="fill:#FFC100;opacity:0.30000000000000004"></path><polygon points="240.81 121.6 267.59 121.6 266.17 97.87 240.81 121.6" style="fill:#FFC100;opacity:0.30000000000000004"></polygon><polygon points="240.81 121.6 269.48 118.17 266.17 97.87 240.81 121.6" style="fill:#FFC100"></polygon></g><g id="Character--inject-39"><path d="M132.78,191.9c-.85,2-1.79,4.22-2.62,6.36s-1.68,4.33-2.45,6.5a103.54,103.54,0,0,0-3.85,13c-.14.54-.21,1.07-.31,1.6l-.14.8-.11.63a15.18,15.18,0,0,0-.06,2.68,57.49,57.49,0,0,0,.89,6.51c.86,4.49,2,9.14,3.13,13.7l-5.08,2.15a83,83,0,0,1-6.36-13.55,47.42,47.42,0,0,1-2.11-7.6,21,21,0,0,1-.39-4.52l0-.65c0-.21,0-.34,0-.52l.1-1c.07-.65.11-1.32.22-2a90.17,90.17,0,0,1,3.49-14.86c.78-2.39,1.58-4.75,2.51-7.06s1.83-4.58,3-6.95Z" style="fill:#7f3e3b"></path><path d="M127.09,242.44l3.9,3.8-8.51,4s-2.06-3.6-.64-6.86Z" style="fill:#7f3e3b"></path><polygon points="134.13 251.91 126.95 254.85 122.48 250.2 130.99 246.24 134.13 251.91" style="fill:#7f3e3b"></polygon><circle cx="270.68" cy="209.69" r="53.16" transform="translate(-26.63 379.52) rotate(-67.5)" style="fill:#FFC100"></circle><circle cx="270.68" cy="209.69" r="50.36" style="fill:#fff"></circle><g style="clip-path:url(#clip-path-4--inject-39)"><path d="M292.54,221.28c.56,4.12,1,8.26,1.49,12.39L295.39,246l.18,1.48.21,1.33.29,1.38.35,1.41c.52,1.89,1.11,3.81,1.77,5.73,1.28,3.85,2.78,7.71,4.25,11.55L299,270.74a100.39,100.39,0,0,1-6.38-11.08c-.93-1.94-1.82-3.91-2.58-6l-.56-1.58-.5-1.65c-.15-.57-.28-1.16-.42-1.74l-.31-1.6c-.77-4.18-1.4-8.3-2-12.44s-1.13-8.28-1.57-12.44Z" style="fill:#ff8b7b"></path><path d="M290.05,212.57c3.19.81,5.42,13.94,5.42,13.94l-12.19,8.29s-5-15.56-2.57-19.06C283.27,212.09,285.4,211.39,290.05,212.57Z" style="fill:#FFC100"></path><polygon points="289.77 215.5 292.22 228.73 287.28 232.08 289.77 215.5" style="opacity:0.2"></polygon><path d="M302.4,268.1l4,7.28-6.76.18s-2.32-5.18-.4-7.76Z" style="fill:#ffb573"></path><path d="M252.91,178.75c-5.3.77-14.79,26.42,4.36,38.39S289,215.51,289,215.51s-12.05-13.25-11-21.89,7.24-19.53-7.28-23.16C260.43,167.89,247.1,170.37,252.91,178.75Z" style="fill:#263238"></path><polygon points="306.89 278.99 301.12 278.51 299.66 275.56 306.42 275.38 306.89 278.99" style="fill:#ffb573"></polygon><path d="M290.05,212.57s3.69,1.3-3.69,46.7H254.93c.53-12.79.54-20.67-5.57-46.92a91.55,91.55,0,0,1,13.34-1.76,98.39,98.39,0,0,1,14.27,0C283.1,211.15,290.05,212.57,290.05,212.57Z" style="fill:#FFC100"></path><path d="M252,222.74c2.85.71,5.48,3.81,5.16,9.53a13.75,13.75,0,0,1-2.62,7.2c-.5-4.4-1.35-9.5-2.68-16Z" style="opacity:0.2"></path><path d="M275.32,220.65s-5.15,4.24-5.15,8.75c-4.28-3.13-10.05-11.67-10.66-17.13a1.64,1.64,0,0,1,1.56-1.78,7.59,7.59,0,0,0,1.14-.15,1.08,1.08,0,0,1,.92.23Z" style="fill:#fafafa"></path><path d="M275.32,220.65a11.62,11.62,0,0,1,5.57,8.41c4.33-3.17,2.12-12.65-.29-17.29a2.49,2.49,0,0,0-1.93-1.32c-.64-.08-1.12-.16-1.44-.23a.43.43,0,0,0-.51.37Z" style="fill:#fafafa"></path><path d="M264.12,194.52c.9,4.59,1.8,13-1.42,16.07a40.41,40.41,0,0,0,12.62,10.06c6.37-5.08,1.65-10.06,1.65-10.06-5.12-1.22-5-5-4.09-8.59Z" style="fill:#ff8b7b"></path><path d="M267.69,197.57l5.18,4.43a15.07,15.07,0,0,0-.44,2.53c-1.95-.28-5-1.95-5.45-4.08A6.09,6.09,0,0,1,267.69,197.57Z" style="opacity:0.2"></path><path d="M256.42,187.15c2.12,7.38,2.86,10.54,7.5,13.55,7,4.51,15.57.29,15.69-7.58.11-7.08-3.38-18-11.36-19.31A10.48,10.48,0,0,0,256.42,187.15Z" style="fill:#ff8b7b"></path><path d="M259,193.8c4.45-4.54,4.23-10.14,2.91-11.89,4.06-.34,14.45-2.91,12.48-6.84s-18.55-6.07-20.13,4C249.11,183.62,253.21,192.77,259,193.8Z" style="fill:#263238"></path><path d="M268.79,186.48c.14.61.57,1,1,.94s.61-.65.48-1.26-.57-1-1-.94S268.66,185.87,268.79,186.48Z" style="fill:#263238"></path><path d="M275.68,185c.14.61.57,1,1,.94s.61-.65.47-1.26-.57-1-1-.95S275.55,184.34,275.68,185Z" style="fill:#263238"></path><path d="M276,183.76l1.37-.75S276.86,184.32,276,183.76Z" style="fill:#263238"></path><path d="M273.8,186.52a16.67,16.67,0,0,0,3,3.4,2.68,2.68,0,0,1-2.08.89Z" style="fill:#ff5652"></path><path d="M272,193.94a6.35,6.35,0,0,0,.92-.13.19.19,0,0,0,.14-.22.19.19,0,0,0-.22-.14,5,5,0,0,1-4.36-1,.19.19,0,0,0-.26,0,.18.18,0,0,0,0,.26A5.13,5.13,0,0,0,272,193.94Z" style="fill:#263238"></path><path d="M255.93,194.51a5.58,5.58,0,0,0,3.58,2.35c1.94.36,2.73-1.41,2-3.15-.62-1.56-2.37-3.62-4.24-3.2A2.53,2.53,0,0,0,255.93,194.51Z" style="fill:#ff8b7b"></path><path d="M265.42,185.14a.36.36,0,0,0,.31-.29,4.34,4.34,0,0,1,2.29-2.62.36.36,0,0,0,.18-.49.36.36,0,0,0-.49-.17,5,5,0,0,0-2.7,3.15.36.36,0,0,0,.29.42A.24.24,0,0,0,265.42,185.14Z" style="fill:#263238"></path><path d="M277,180.07a.36.36,0,0,0,.22-.67,3.62,3.62,0,0,0-3.32-.43.37.37,0,0,0-.19.48.36.36,0,0,0,.48.19,2.9,2.9,0,0,1,2.63.37A.3.3,0,0,0,277,180.07Z" style="fill:#263238"></path><path d="M269.1,185.29l1.37-.75S270,185.85,269.1,185.29Z" style="fill:#263238"></path><path d="M254.46,257.43l-.81,2.81c-.1.22.15.44.52.44h32.34c.28,0,.52-.14.54-.31l.28-2.82c0-.19-.23-.36-.54-.36H255A.57.57,0,0,0,254.46,257.43Z" style="fill:#FFC100"></path><path d="M254.46,257.43l-.81,2.81c-.1.22.15.44.52.44h32.34c.28,0,.52-.14.54-.31l.28-2.82c0-.19-.23-.36-.54-.36H255A.57.57,0,0,0,254.46,257.43Z" style="fill:#fff;opacity:0.2"></path><path d="M258.84,261H258c-.17,0-.3-.09-.29-.2l.4-3.65c0-.11.16-.2.33-.2h.85c.17,0,.3.09.29.2l-.4,3.65C259.16,260.9,259,261,258.84,261Z" style="fill:#FFC100"></path><path d="M258.84,261H258c-.17,0-.3-.09-.29-.2l.4-3.65c0-.11.16-.2.33-.2h.85c.17,0,.3.09.29.2l-.4,3.65C259.16,260.9,259,261,258.84,261Z" style="opacity:0.4"></path><path d="M284.12,261h-.86c-.17,0-.3-.09-.28-.2l.4-3.65c0-.11.16-.2.33-.2h.85c.17,0,.3.09.29.2l-.4,3.65A.32.32,0,0,1,284.12,261Z" style="fill:#FFC100"></path><path d="M284.12,261h-.86c-.17,0-.3-.09-.28-.2l.4-3.65c0-.11.16-.2.33-.2h.85c.17,0,.3.09.29.2l-.4,3.65A.32.32,0,0,1,284.12,261Z" style="opacity:0.4"></path><path d="M271.53,261h-.85c-.17,0-.3-.09-.29-.2l.4-3.65c0-.11.16-.2.33-.2H272c.17,0,.3.09.29.2l-.4,3.65C271.85,260.9,271.7,261,271.53,261Z" style="fill:#FFC100"></path><path d="M271.53,261h-.85c-.17,0-.3-.09-.29-.2l.4-3.65c0-.11.16-.2.33-.2H272c.17,0,.3.09.29.2l-.4,3.65C271.85,260.9,271.7,261,271.53,261Z" style="opacity:0.4"></path><path d="M273.81,265.55l7.63-3.42-2.17,7.57s-4.85,1.1-6.95-1.33Z" style="fill:#ffb573"></path><path d="M253.56,222.56c-.26,2.66-.59,5.32-.88,8l-1,8c-.32,2.65-.74,5.3-1.1,8l-.57,4-.18,1.26a1.33,1.33,0,0,0,.16.56,7.15,7.15,0,0,0,1.69,2,23.53,23.53,0,0,0,2.82,2,57.31,57.31,0,0,0,6.71,3.5c2.36,1.07,4.79,2,7.26,2.93s5,1.78,7.45,2.59l-.88,3.82a99.88,99.88,0,0,1-15.95-3.94,52.4,52.4,0,0,1-7.82-3.28,27,27,0,0,1-3.84-2.43,13.44,13.44,0,0,1-3.6-3.93,8.64,8.64,0,0,1-1-3.25c0-.31-.05-.62,0-.93s0-.7.05-.8l.09-1,.34-4c.25-2.66.44-5.33.73-8l.81-8c.32-2.66.59-5.32.94-8Z" style="fill:#ff8b7b"></path><path d="M249.36,212.35c-3.15,1-6.93,11.8-6.93,11.8l11,11.34s5.65-11.66,4.32-15.73C256.4,215.52,253,211.25,249.36,212.35Z" style="fill:#FFC100"></path><polygon points="287.76 263.7 285.6 269.94 279.27 269.7 281.44 262.13 287.76 263.7" style="fill:#ffb573"></polygon></g><path d="M222.52,222.66a49.87,49.87,0,1,1,61.13,35.18A49.87,49.87,0,0,1,222.52,222.66Z" style="fill:#FFC100;opacity:0.2"></path><path d="M306.82,175.32l-41.07,84a48.13,48.13,0,0,0,10.59-.09l36.93-75.5A49.24,49.24,0,0,0,306.82,175.32Zm12,21.38-.27-1-29.49,60.32A49.88,49.88,0,0,0,318.82,196.7Zm-61.13-35.17a49.88,49.88,0,0,0-20,85.58L280,160.68A49.63,49.63,0,0,0,257.69,161.53Z" style="fill:#fff;opacity:0.2"></path><path d="M214.56,204.27l-1-.1c.16-1.71.41-3.43.73-5.11l1,.19C215,200.9,214.73,202.59,214.56,204.27Zm1.94-10.15-1-.28A58.1,58.1,0,0,1,221,181.09l.87.5A57.08,57.08,0,0,0,216.5,194.12Z" style="fill:#FFC100"></path><path d="M322.66,195.67a53.84,53.84,0,1,0-38,66A53.84,53.84,0,0,0,322.66,195.67Zm-100.14,27a49.87,49.87,0,1,1,61.13,35.18A49.87,49.87,0,0,1,222.52,222.66Z" style="fill:#FFC100"></path><path d="M223.32,230.91c0,2.29-.59,2.59-1.22,2.66l-1.81.48-3.63,1-7.26,1.92-14.55,3.73q-14.57,3.66-29.18,7.13l-29.22,7-14.59,3.54c-4.86,1.21-9.74,2.33-14.55,3.73a3.87,3.87,0,1,1-2.18-7.43l.16,0c4.87-1.2,9.65-2.69,14.45-4.08l14.4-4.27,28.77-8.66q14.39-4.35,28.81-8.51L206.17,225l7.24-2,3.62-1,1.81-.5c.58-.25,1.22-.28,2.4,1.69A14.83,14.83,0,0,1,223.32,230.91Z" style="fill:#FFC100"></path><path d="M160.4,156.3c0,.59.31,1.07.7,1.07s.7-.48.7-1.07-.31-1.08-.7-1.08S160.4,155.7,160.4,156.3Z" style="fill:#263238"></path><path d="M160.66,157.37a21.16,21.16,0,0,0,2.82,5.07,3.41,3.41,0,0,1-2.83.53Z" style="fill:#630f0f"></path><path d="M158.3,153a.35.35,0,0,1-.2-.63,3.49,3.49,0,0,1,3.13-.54.35.35,0,0,1,.2.45.35.35,0,0,1-.45.2h0a2.79,2.79,0,0,0-2.48.45A.31.31,0,0,1,158.3,153Z" style="fill:#263238"></path><path d="M141.32,160.13c.53,5.79.6,16.32-3.49,19.77,0,0,.93,5.91,10.87,6.83,10.93,1,5.76-5.29,5.76-5.29-5.83-2.07-5.24-6.77-3.79-11.09Z" style="fill:#7f3e3b"></path><path d="M125.33,397.31c-.86.36-2.83-.51-3.46-.88a.15.15,0,0,1-.08-.16.17.17,0,0,1,.12-.15c.1,0,2.44-.78,3.39-.23a.81.81,0,0,1,.41.55.7.7,0,0,1-.23.79A.71.71,0,0,1,125.33,397.31Zm-2.91-1c1,.5,2.43.92,2.85.62,0,0,.17-.12.1-.44a.48.48,0,0,0-.24-.32A4.73,4.73,0,0,0,122.42,396.33Z" style="fill:#FFC100"></path><path d="M122.51,396.29a2.89,2.89,0,0,1-.51.16.15.15,0,0,1-.17-.05.19.19,0,0,1,0-.18c0-.08.81-2.06,1.83-2.48h0a.94.94,0,0,1,.77,0,.55.55,0,0,1,.4.59C124.73,395,123.44,395.9,122.51,396.29Zm-.24-.28c.9-.34,2.13-1.22,2.19-1.71,0-.05,0-.15-.2-.25a.58.58,0,0,0-.5,0h0C123.11,394.33,122.53,395.44,122.27,396Z" style="fill:#FFC100"></path><path d="M170.76,409.11a13.4,13.4,0,0,1-2.25-.2.18.18,0,0,1-.14-.14.16.16,0,0,1,.09-.18c.11-.07,2.67-1.53,3.9-1.2a.9.9,0,0,1,.55.41.66.66,0,0,1,0,.76C172.62,409,171.71,409.11,170.76,409.11Zm-1.69-.46c1.37.19,3.23.18,3.57-.29,0-.06.09-.17,0-.39a.51.51,0,0,0-.34-.24C171.51,407.52,170,408.19,169.07,408.65Z" style="fill:#FFC100"></path><path d="M168.54,408.91a.19.19,0,0,1-.1,0,.17.17,0,0,1-.07-.16c0-.08.21-2.06,1.14-2.83a1.33,1.33,0,0,1,1-.3c.47.05.61.29.64.49.14.83-1.62,2.42-2.5,2.82Zm1.8-3a1,1,0,0,0-.61.23,4.15,4.15,0,0,0-1,2.26c.91-.54,2.1-1.79,2-2.29,0,0,0-.16-.34-.19Z" style="fill:#FFC100"></path><polygon points="160.47 408.74 167.81 408.74 168.54 391.73 161.2 391.73 160.47 408.74" style="fill:#7f3e3b"></polygon><polygon points="113.67 394.7 120.89 396.06 129.02 380.27 121.8 378.92 113.67 394.7" style="fill:#7f3e3b"></polygon><path d="M121.68,395.31l-7.9-2.38a.64.64,0,0,0-.74.3l-3.28,5.84a1.08,1.08,0,0,0,.66,1.56c2.77.78,4.16,1,7.63,2.07,2.14.64,7.76,3,10.72,3.87s4.21-1.92,3.08-2.55c-5.06-2.81-7.89-5.85-9.16-7.93A1.76,1.76,0,0,0,121.68,395.31Z" style="fill:#263238"></path><path d="M167.76,407.89h-8a.63.63,0,0,0-.62.5l-1.45,6.53a1.06,1.06,0,0,0,1.05,1.3c2.9,0,7.08-.21,10.72-.21,4.25,0,7.92.23,12.91.23,3,0,3.85-3.05,2.59-3.33-5.75-1.25-10.44-1.39-15.41-4.45A3.41,3.41,0,0,0,167.76,407.89Z" style="fill:#263238"></path><path d="M124,181.77c-6.38,3-9,23.56-9,23.56l14.65,5.75a116.48,116.48,0,0,0,5.5-17.15C137.25,184.65,130.55,178.65,124,181.77Z" style="fill:#FFC100"></path><path d="M124,181.77c-6.38,3-9,23.56-9,23.56l14.65,5.75a116.48,116.48,0,0,0,5.5-17.15C137.25,184.65,130.55,178.65,124,181.77Z" style="opacity:0.30000000000000004"></path><path d="M133.53,187.8a8.18,8.18,0,0,1,1.56-.57,13.46,13.46,0,0,1,.06,6.7,116.48,116.48,0,0,1-5.5,17.15l-4.83-1.89C125.71,203.82,128.44,190.24,133.53,187.8Z" style="opacity:0.2"></path><path d="M166.52,181.61s7.82,8.83.43,63.5H127.66c-.27-6,3.52-35.46-2.3-63.88a102.86,102.86,0,0,1,13.16-1.66,145.27,145.27,0,0,1,16.7,0A73.5,73.5,0,0,1,166.52,181.61Z" style="fill:#FFC100"></path><path d="M166.52,181.61s7.82,8.83.43,63.5H127.66c-.27-6,3.52-35.46-2.3-63.88a102.86,102.86,0,0,1,13.16-1.66,145.27,145.27,0,0,1,16.7,0A73.5,73.5,0,0,1,166.52,181.61Z" style="opacity:0.30000000000000004"></path><path d="M158.61,193.33c1.78-5.34,6.06-7.05,10.42-3.88.88,5.18,1.5,13.53.79,26.77l-7.67-.07S156,201.28,158.61,193.33Z" style="opacity:0.2"></path><path d="M171.06,189.68c.38,2.29.8,4.79,1.27,7.17s1,4.8,1.56,7.16a88.54,88.54,0,0,0,4.21,13.61c.45,1,.91,2.06,1.42,3l.65,1.18a4.49,4.49,0,0,0,.57.74,21.49,21.49,0,0,0,5,3.54A118.57,118.57,0,0,0,199.07,232l-1.09,5.4a61.1,61.1,0,0,1-15.78-3.22,33.5,33.5,0,0,1-4-1.69,23.21,23.21,0,0,1-4-2.59,14.56,14.56,0,0,1-2-2l-.48-.63-.31-.47c-.21-.31-.42-.62-.61-.93-.78-1.25-1.47-2.5-2.11-3.76a83.06,83.06,0,0,1-5.54-15.27c-.67-2.57-1.29-5.13-1.79-7.72s-1-5.12-1.3-7.88Z" style="fill:#7f3e3b"></path><path d="M156.7,187c-2.07,6.71,6.33,26.71,6.33,26.71l17.69-4.45a81.82,81.82,0,0,0-5.43-18.39C169.55,178.39,159.19,178.91,156.7,187Z" style="fill:#FFC100"></path><path d="M156.7,187c-2.07,6.71,6.33,26.71,6.33,26.71l17.69-4.45a81.82,81.82,0,0,0-5.43-18.39C169.55,178.39,159.19,178.91,156.7,187Z" style="opacity:0.30000000000000004"></path><path d="M199.18,232l7.59,3.41-7.36,6.07s-3.24-1.06-3.77-6.38l-1.13-4.42,3.33.85A7.88,7.88,0,0,1,199.18,232Z" style="fill:#7f3e3b"></path><polygon points="210.8 239.09 203.41 243.5 199.41 241.44 206.76 235.37 210.8 239.09" style="fill:#7f3e3b"></polygon><path d="M158.56,178.92c-3.17-2.68-10.87-4.61-19.49-5.09-4.93-.27-10,.54-12.11,1.48s.39,7.73,3.15,7.88c-1.46,2.3.66,6.74,3.83,7.61-.5,3.84,9.18,4.2,15,1.1C153.64,189.43,162.36,182.13,158.56,178.92Z" style="fill:#263238"></path><polygon points="168.54 391.73 168.17 400.5 160.82 400.5 161.19 391.73 168.54 391.73" style="opacity:0.2"></polygon><polygon points="121.79 378.92 129.02 380.28 124.83 388.41 117.6 387.05 121.79 378.92" style="opacity:0.2"></polygon><path d="M140.64,155c.44,7.28.32,11.56,4,15.3,5.52,5.62,14.51,2.3,16.25-5,1.57-6.54.58-17.34-6.54-20.25A9.94,9.94,0,0,0,140.64,155Z" style="fill:#7f3e3b"></path><path d="M154.26,159.06c2.75-2.78,7.27-8.84,5.69-13.39-2.33-6.73-9.28-4.45-8.17-3.11-4-2.64-12.08-2.77-10.39.77-7.27,1-7.86,3.95-5.84,5.06-5.18,4.94-4.93,10.05-1,9.67-3,3,2.52,8.94,8.69,11.77C145.34,164.33,156.58,163.33,154.26,159.06Z" style="fill:#263238"></path><path d="M151.07,161.69a.25.25,0,0,1-.14,0,.25.25,0,0,1-.06-.35c1.58-2.32,3.12-4.18,4.48-5.82,2.6-3.14,4.48-5.41,4.64-8.49a6.06,6.06,0,0,0-3.92-5.85c-1.86-.84-3.86-.89-4.65-.11-.42.41-.46,1-.12,1.82a.23.23,0,0,1-.13.32.25.25,0,0,1-.33-.13,2,2,0,0,1,.23-2.37c.94-.92,3.13-.92,5.21,0a6.53,6.53,0,0,1,4.21,6.32c-.17,3.25-2.09,5.57-4.75,8.78-1.36,1.64-2.89,3.49-4.46,5.8A.25.25,0,0,1,151.07,161.69Z" style="fill:#263238"></path><path d="M151.43,158.24a8.24,8.24,0,0,0,2.06,4.87c1.6,1.76,3.28.66,3.56-1.48.25-1.94-.27-5.19-2.23-6.16S151.3,156.06,151.43,158.24Z" style="fill:#7f3e3b"></path><path d="M153,245.11s2.48,49.52-2.35,70.5c-7.65,33.22-22.28,71.75-22.28,71.75l-13.62-2.57s11.47-38.58,14-66.24c2.23-24.84-1.07-53.37-1.07-73.44Z" style="fill:#263238"></path><path d="M149.33,259.78c1-1.93,2.95,3.82,4.31,11.2,0,10.18-.18,21.76-1.07,31.57C145.77,290,147.22,263.78,149.33,259.78Z" style="opacity:0.2"></path><path d="M131.71,383.18c.06,0-2.13,4.72-2.13,4.72l-15.76-3.07,1.72-4.75Z" style="fill:#2c6bdb"></path><path d="M167,245.11S178,292,178.8,314.41c.87,25.13-7.9,84.39-7.9,84.39H158.46s-1.53-59.72-2.09-82.61c-.6-24.95-15.24-71.08-15.24-71.08Z" style="fill:#263238"></path><path d="M173.3,393.84c.06,0-.7,5.17-.7,5.17H157.46l-.41-4.61Z" style="fill:#2c6bdb"></path></g></svg>