<svg xmlns="http://www.w3.org/2000/svg" viewBox="0 0 500 500"><g id="freepik--character-1--inject-65"><circle cx="145.81" cy="216.03" r="10.49" style="fill:#263238"></circle><rect x="120.71" y="393.45" width="7.39" height="12.64" transform="translate(248.8 799.54) rotate(180)" style="fill:#ffa8a7"></rect><polygon points="146.31 392.77 153.69 393.02 154.06 379.64 146.31 379.39 146.31 392.77" style="fill:#ffa8a7"></polygon><path d="M121.19,285.08c0,7.05-.91,57.93-.91,57.93-.17,2-2.08,5.77-1.66,13.57.55,10.59,1.77,43.19,1.77,43.19a9.72,9.72,0,0,0,8.22.16s6.52-43.31,7.84-53.81c1.16-9.15,3.12-34,3.12-34l4,29.89a41.94,41.94,0,0,0-.91,11.74c.34,4.85,3.19,34.91,3.19,34.91a10.05,10.05,0,0,0,8.52.65s3.74-42.84,3.82-47.3c.1-5.07-2.46-56.9-2.46-56.9Z" style="fill:#37474f"></path><path d="M154.72,242.15c4.33,3.56,12.15,10.79,12.15,10.79l-12.2,6.71-7.76-20.81S150,238.24,154.72,242.15Z" style="fill:#FFC100"></path><path d="M154.72,242.15c4.33,3.56,12.15,10.79,12.15,10.79l-12.2,6.71-7.76-20.81S150,238.24,154.72,242.15Z" style="opacity:0.1"></path><path d="M123.7,243.91s-2.76,2.77-2.76,9.47v14.47l-.21,27.33c10.6,5.59,24,5.91,35.29-2.35,0,0-.54-35.12-.54-40.88s-3.2-13.23-12-13.74l-11.39,2.65Z" style="fill:#FFC100"></path><path d="M127.69,223.48s1.7,8,2.38,9.3a3.6,3.6,0,0,0,2.09,1.68l-.12-5.61Z" style="fill:#263238"></path><path d="M129.82,212.05a3.9,3.9,0,0,0-3.25,1.14c-1.4,1.43-.62,5.91,1.12,10.29l3.2.37Z" style="fill:#263238"></path><path d="M131.85,223.85c-.64.39-1.56-.85-2.35-1.67s-3.37-2-4.66.75S126,229.36,128,230c3.5,1.1,4-1.14,4-1.14l.27,12.64s3,5,10.79,6.2c4,.62,4.94-3.24.61-6.53v-3.85a22.17,22.17,0,0,0,4.73.24c2.58-.4,4.2-2.43,5-5.22,1.26-4.48,1.73-8.1.67-16.92-1.17-9.66-12.41-9.76-18.48-5.94S131.85,223.85,131.85,223.85Z" style="fill:#ffa8a7"></path><path d="M131.85,224.93c-.32,0-1.55-2-2.35-2.75-1.11-1,.32-10.13.32-10.13a4.34,4.34,0,0,1,1.07-4.62c1.52-1.66,4.05-1.85,8.38-2.53,2.27-.36,5.71-1,8-1.41,2.7-.51,4.94-1,6.86.62a4.82,4.82,0,0,1,1.32,5.38,4.63,4.63,0,0,1-.77,1.15,4.36,4.36,0,0,1-1.94,1.34s-1.18,1.05-5.29,1.55a60.59,60.59,0,0,1-11.38-.22c-1.19-.16-1.44,1-2.08,4.14C133.4,220.22,132.93,224.91,131.85,224.93Z" style="fill:#263238"></path><path d="M129.83,212.76,126,210.67a2.14,2.14,0,0,1,2.94-1A2.32,2.32,0,0,1,129.83,212.76Z" style="fill:#263238"></path><path d="M143.7,237.31s-5.75-1.16-7.76-2.23a6.62,6.62,0,0,1-2.78-2.75,8.94,8.94,0,0,0,1.58,3.24c1.47,1.88,9,3.27,9,3.27Z" style="fill:#f28f8f"></path><path d="M142.32,222.41a1.16,1.16,0,1,1-1.15-1.2A1.17,1.17,0,0,1,142.32,222.41Z" style="fill:#263238"></path><path d="M141.1,218.06l-2.47,1.36a1.47,1.47,0,0,1,.57-2A1.38,1.38,0,0,1,141.1,218.06Z" style="fill:#263238"></path><path d="M143.18,230.38l2.63,1a1.38,1.38,0,0,1-1.78.87A1.47,1.47,0,0,1,143.18,230.38Z" style="fill:#f28f8f"></path><path d="M152.6,219l-2.25-1.73a1.36,1.36,0,0,1,2-.3A1.49,1.49,0,0,1,152.6,219Z" style="fill:#263238"></path><path d="M151.91,222.09a1.16,1.16,0,1,1-1.15-1.21A1.19,1.19,0,0,1,151.91,222.09Z" style="fill:#263238"></path><polygon points="146.04 220.99 146.41 227.93 150.03 226.69 146.04 220.99" style="fill:#f28f8f"></polygon><path d="M128.09,402.44v-1.05c.71.31,2.35,6.57,5.28,9.24,2.33,2.13,5.51,4.58,6.32,6.95s-4.43,3.82-6.61,3.44c-2.52-.45-6.91-2.23-8-3.88s-1.61-4.09-2.51-5.3-3-2.56-3.44-4a8.9,8.9,0,0,1,.43-3.87c.34-1.31.71-2.74,1.16-2.62v.8a5.77,5.77,0,0,0,3.69,1.25C125.48,403.48,128.1,403.27,128.09,402.44Z" style="fill:#263238"></path><path d="M153.77,390.75c.39,0,.7.55,1.54,1.47a16.3,16.3,0,0,0,4.35,3.12c2.76,1.39,8.14,3.52,10.57,4.61,1.53.69,1.45,2.53-.12,3.57s-5.36,1.8-9.92.78c-2.48-.56-5.71-2.85-7.76-2.72s-5.87.09-7.38-.95-.9-3.26-.47-5.17c.46-2.09,1-5.33,1.73-5.19V391c.89,1.34,5.47,1.89,7.42.9Z" style="fill:#263238"></path><path d="M139.57,312.09a27.44,27.44,0,0,0,10.28-5.9s-2,3.72-7.88,7.17l1.26,26.06Z" style="fill:#263238"></path><path d="M148.78,340.07l-.7-.4a4.49,4.49,0,0,1-2-3.5V264.38a4.49,4.49,0,0,1,2-3.5L210.26,225a4.47,4.47,0,0,1,4,0l.7.41a4.45,4.45,0,0,1,2,3.49v71.8a4.47,4.47,0,0,1-2,3.49l-62.18,35.9A4.47,4.47,0,0,1,148.78,340.07Z" style="fill:#f5f5f5"></path><path d="M182.73,254.26c10.77-6.22,19.51-1.17,19.51,11.27s-8.74,27.57-19.51,33.79-19.52,1.18-19.52-11.26S172,260.49,182.73,254.26Z" style="fill:#455a64"></path><path d="M182.59,264.06c3.49-2,6.33-.39,6.33,3.65a14,14,0,0,1-6.33,11c-3.5,2-6.33.39-6.33-3.65A14,14,0,0,1,182.59,264.06Z" style="fill:#FFC100"></path><path d="M195.06,285.58c0-6.63-4.65-9.32-10.4-6l-3.59,2.07c-5.74,3.32-10.4,11.38-10.4,18v1.79c3.32,1.1,7.5.5,12.06-2.13a38.42,38.42,0,0,0,12.33-12.2Z" style="fill:#FFC100"></path><path d="M217,228.56c-.14-1.05-1-1.43-2-.85l-62.18,35.91a4.14,4.14,0,0,0-1.43,1.5l-4.72-2.73a4.16,4.16,0,0,1,1.43-1.51L210.26,225a4.41,4.41,0,0,1,4,0l.7.4A4.54,4.54,0,0,1,217,228.56Z" style="fill:#fafafa"></path><path d="M152.47,340.23a4.51,4.51,0,0,1-3.69-.16l-.71-.4a4.49,4.49,0,0,1-2-3.5V264.38a4,4,0,0,1,.59-2l4.72,2.73a4.18,4.18,0,0,0-.59,2v71.81C150.79,340.06,151.52,340.6,152.47,340.23Z" style="fill:#e0e0e0"></path><path d="M161.28,322.17v0c0,2,1.43,2.87,3.2,1.85L201,303a7.06,7.06,0,0,0,3.2-5.54v0c0-2-1.43-2.87-3.2-1.85l-36.49,21.07A7.1,7.1,0,0,0,161.28,322.17Z" style="fill:#FFC100"></path><path d="M111.85,287.16c-3.79-2.64-3.74-6.56-2.53-11,8.25-30.5,10.78-30.67,14.38-32.21l2.89,12-7.71,25A48.71,48.71,0,0,0,136.13,289a7.2,7.2,0,0,0,3.85-.41c2.35-1.32,3.67-1.32,6.08-2v3.94a20.36,20.36,0,0,0,6.47-.22c5-.93,7.17.11,4.12,5.81-1.91,3.57-5.62,4.75-14.92,3.15a75.81,75.81,0,0,1-10-2.61A85.58,85.58,0,0,1,111.85,287.16Z" style="fill:#ffa8a7"></path><path d="M123.7,243.91s3.55,2.23,4.31,7.82-4.62,20.8-4.62,20.8-8.69-.83-12.29-5.11c0,0,5-13.91,6-17.05A9.19,9.19,0,0,1,123.7,243.91Z" style="fill:#FFC100"></path><path d="M123.7,243.91s3.55,2.23,4.31,7.82-4.62,20.8-4.62,20.8-8.69-.83-12.29-5.11c0,0,5-13.91,6-17.05A9.19,9.19,0,0,1,123.7,243.91Z" style="opacity:0.1"></path><path d="M217,245.87v4.45s-2.4,3.65-5,5-2.56,6.74.65,7.5,7.63-3.21,8-5.39S220.23,245.64,217,245.87Z" style="fill:#ffa8a7"></path></g></svg>