<?xml version="1.0" standalone="no"?><svg xmlns="http://www.w3.org/2000/svg" viewBox="0 0 1440 320"><path fill="#d40dba" fill-opacity="1" d="M0,32L18.5,64C36.9,96,74,160,111,154.7C147.7,149,185,75,222,69.3C258.5,64,295,128,332,176C369.2,224,406,256,443,234.7C480,213,517,139,554,101.3C590.8,64,628,64,665,58.7C701.5,53,738,43,775,53.3C812.3,64,849,96,886,96C923.1,96,960,64,997,96C1033.8,128,1071,224,1108,240C1144.6,256,1182,192,1218,138.7C1255.4,85,1292,43,1329,32C1366.2,21,1403,43,1422,53.3L1440,64L1440,0L1421.5,0C1403.1,0,1366,0,1329,0C1292.3,0,1255,0,1218,0C1181.5,0,1145,0,1108,0C1070.8,0,1034,0,997,0C960,0,923,0,886,0C849.2,0,812,0,775,0C738.5,0,702,0,665,0C627.7,0,591,0,554,0C516.9,0,480,0,443,0C406.2,0,369,0,332,0C295.4,0,258,0,222,0C184.6,0,148,0,111,0C73.8,0,37,0,18,0L0,0Z"></path></svg>