<?xml version="1.0" standalone="no"?><svg xmlns="http://www.w3.org/2000/svg" viewBox="0 0 1440 320"><path fill="#eb05d7" fill-opacity="1" d="M0,32L7.7,74.7C15.5,117,31,203,46,202.7C61.9,203,77,117,93,69.3C108.4,21,124,11,139,16C154.8,21,170,43,186,85.3C201.3,128,217,192,232,197.3C247.7,203,263,149,279,133.3C294.2,117,310,139,325,165.3C340.6,192,356,224,372,245.3C387.1,267,403,277,418,250.7C433.5,224,449,160,465,160C480,160,495,224,511,256C526.5,288,542,288,557,256C572.9,224,588,160,604,133.3C619.4,107,635,117,650,122.7C665.8,128,681,128,697,144C712.3,160,728,192,743,192C758.7,192,774,160,790,176C805.2,192,821,256,836,288C851.6,320,867,320,883,288C898.1,256,914,192,929,154.7C944.5,117,960,107,975,96C991,85,1006,75,1022,90.7C1037.4,107,1053,149,1068,181.3C1083.9,213,1099,235,1115,234.7C1130.3,235,1146,213,1161,181.3C1176.8,149,1192,107,1208,90.7C1223.2,75,1239,85,1254,101.3C1269.7,117,1285,139,1301,133.3C1316.1,128,1332,96,1347,90.7C1362.6,85,1378,107,1394,101.3C1409,96,1425,64,1432,48L1440,32L1440,0L1432.3,0C1424.5,0,1409,0,1394,0C1378.1,0,1363,0,1347,0C1331.6,0,1316,0,1301,0C1285.2,0,1270,0,1254,0C1238.7,0,1223,0,1208,0C1192.3,0,1177,0,1161,0C1145.8,0,1130,0,1115,0C1099.4,0,1084,0,1068,0C1052.9,0,1037,0,1022,0C1006.5,0,991,0,975,0C960,0,945,0,929,0C913.5,0,898,0,883,0C867.1,0,852,0,836,0C820.6,0,805,0,790,0C774.2,0,759,0,743,0C727.7,0,712,0,697,0C681.3,0,666,0,650,0C634.8,0,619,0,604,0C588.4,0,573,0,557,0C541.9,0,526,0,511,0C495.5,0,480,0,465,0C449,0,434,0,418,0C402.6,0,387,0,372,0C356.1,0,341,0,325,0C309.7,0,294,0,279,0C263.2,0,248,0,232,0C216.8,0,201,0,186,0C170.3,0,155,0,139,0C123.9,0,108,0,93,0C77.4,0,62,0,46,0C31,0,15,0,8,0L0,0Z"></path></svg>