<?xml version="1.0" standalone="no"?><svg xmlns="http://www.w3.org/2000/svg" viewBox="0 0 1440 320"><path fill="#0099ff" fill-opacity="1" d="M0,0L6.2,42.7C12.3,85,25,171,37,181.3C49.2,192,62,128,74,90.7C86.2,53,98,43,111,85.3C123.1,128,135,224,148,240C160,256,172,192,185,165.3C196.9,139,209,149,222,149.3C233.8,149,246,139,258,165.3C270.8,192,283,256,295,266.7C307.7,277,320,235,332,202.7C344.6,171,357,149,369,128C381.5,107,394,85,406,69.3C418.5,53,431,43,443,80C455.4,117,468,203,480,202.7C492.3,203,505,117,517,117.3C529.2,117,542,203,554,224C566.2,245,578,203,591,197.3C603.1,192,615,224,628,234.7C640,245,652,235,665,208C676.9,181,689,139,702,133.3C713.8,128,726,160,738,192C750.8,224,763,256,775,256C787.7,256,800,224,812,186.7C824.6,149,837,107,849,80C861.5,53,874,43,886,80C898.5,117,911,203,923,202.7C935.4,203,948,117,960,117.3C972.3,117,985,203,997,208C1009.2,213,1022,139,1034,112C1046.2,85,1058,107,1071,117.3C1083.1,128,1095,128,1108,122.7C1120,117,1132,107,1145,112C1156.9,117,1169,139,1182,133.3C1193.8,128,1206,96,1218,80C1230.8,64,1243,64,1255,69.3C1267.7,75,1280,85,1292,85.3C1304.6,85,1317,75,1329,64C1341.5,53,1354,43,1366,74.7C1378.5,107,1391,181,1403,181.3C1415.4,181,1428,107,1434,69.3L1440,32L1440,0L1433.8,0C1427.7,0,1415,0,1403,0C1390.8,0,1378,0,1366,0C1353.8,0,1342,0,1329,0C1316.9,0,1305,0,1292,0C1280,0,1268,0,1255,0C1243.1,0,1231,0,1218,0C1206.2,0,1194,0,1182,0C1169.2,0,1157,0,1145,0C1132.3,0,1120,0,1108,0C1095.4,0,1083,0,1071,0C1058.5,0,1046,0,1034,0C1021.5,0,1009,0,997,0C984.6,0,972,0,960,0C947.7,0,935,0,923,0C910.8,0,898,0,886,0C873.8,0,862,0,849,0C836.9,0,825,0,812,0C800,0,788,0,775,0C763.1,0,751,0,738,0C726.2,0,714,0,702,0C689.2,0,677,0,665,0C652.3,0,640,0,628,0C615.4,0,603,0,591,0C578.5,0,566,0,554,0C541.5,0,529,0,517,0C504.6,0,492,0,480,0C467.7,0,455,0,443,0C430.8,0,418,0,406,0C393.8,0,382,0,369,0C356.9,0,345,0,332,0C320,0,308,0,295,0C283.1,0,271,0,258,0C246.2,0,234,0,222,0C209.2,0,197,0,185,0C172.3,0,160,0,148,0C135.4,0,123,0,111,0C98.5,0,86,0,74,0C61.5,0,49,0,37,0C24.6,0,12,0,6,0L0,0Z"></path></svg>